<?xml version="1.0" encoding="utf-8"?>
<!DOCTYPE svg PUBLIC "-//W3C//DTD SVG 1.1//EN" "http://www.w3.org/Graphics/SVG/1.1/DTD/svg11.dtd">
<svg version="1.1" id="Layer_1" xmlns="http://www.w3.org/2000/svg" xmlns:xlink="http://www.w3.org/1999/xlink" x="0px" y="0px"
	 viewBox="0 0 789.5325 1642.5466" enable-background="new 0 0 789.5325 1642.5466" xml:space="preserve">
<g>
	<path fill="none" d="M265.7189,526.8403c0.6498,3.824,1.6112,7.5834,2.4491,11.3696c0.6605,3.6306,1.3264,7.2612,2.1428,10.865
		c0.1665,0.6338,0.29,1.3909,0.9399,1.7454c2.116-0.4673,3.9904-1.6487,6.0151-2.3953c1.1295-0.4998,2.2676-0.9802,3.4004-1.4727
		c8.5658-3.7227,17.2135-7.2593,25.8762-10.7539c1.6305-0.6577,3.2607-1.3167,4.8915-1.9735
		c5.0861-2.014,10.2633-3.8776,15.2097-6.2139c2.0033-1.2621,0.4081-3.5446-0.0162-5.2202
		c-2.0032-6.9388-3.3834-14.243-2.4382-21.4773c0.0107-0.9398,0.4297-2.3256-0.6874-2.782
		c-28.5397-13.7006-56.9344-27.7288-85.1411-42.1061c-1.6273-0.8055-3.1202-1.8958-4.8766-2.4221
		c-0.4618,2.2073,1.0044,4.0549,1.9066,5.9238c3.405,6.5952,7.3632,12.9058,10.4137,19.6836
		c5.7466,11.9819,10.9669,24.2002,16.1336,36.4453C263.2162,519.6383,265.1551,523.0325,265.7189,526.8403z"/>
	<path fill="none" d="M320.1681,596.363c-3.4623,1.1458-6.9319,2.2697-10.4205,3.3357c-0.1854,0.0546-0.3776,0.1193-0.5669,0.1933
		c-0.7045,0.2755-1.3633,0.7141-1.4309,1.5522c0.4564,2.3953,2.0784,4.4415,2.4597,6.8691
		c-0.4082,1.8046-2.2825,3.1955-1.7992,5.2095c0.972,1.1655,2.7712,1.0258,3.8346,2.0999c1.1763,1.0849,1.4233,2.7874,2.4115,4.0012
		c1.1654,0.6122,2.4652,1.0204,3.4479,1.9442c0.7463,0.7084,1.6649,1.2376,2.5171,1.8327c0.8342,0.5825,1.6047,1.228,2.0857,2.1685
		c0.7245,1.2521,0.9744,2.6115,0.9767,4.0009c0.0033,1.9064-0.462,3.8696-0.8317,5.6931c-0.333,1.1547,0.7035,1.9711,1.2996,2.8089
		c2.4276,2.9431,2.8304,6.9013,3.3835,10.5319c0.1611,1.3749,1.2085,2.3738,1.896,3.507c0.6122,0.9345,0.7035,2.0946,1.2244,3.0881
		c0.7627,0.8271,1.7241,1.4769,2.4061,2.3954c0.5101,1.3051,0.3597,2.7712,0.7948,4.1086c1.2461,1.8475,3.303,2.9055,5.2472,3.8883
		c2.0087,0.9291,3.0934,3.0505,5.0861,4.0226c1.9871,1.4071,4.5435,1.0526,6.7562,1.8367
		c6.8905,2.1697,13.0077,6.1172,19.5922,9.0012c1.4716,0.4619,1.6757-1.4554,1.9119-2.4382
		c0.1343-1.2137,0.6338-3.056-0.8485-3.6199c-3.4694-1.6058-7.0194-3.1257-10.0216-5.5371
		c-2.9055-1.7616-3.9744-5.231-4.5328-8.3836c-0.4351-2.3792,0.1556-4.8282-0.376-7.186c-2.8357-9.0872-5.2472-18.33-6.6434-27.7556
		c-0.2524-1.1386,0.0806-2.9324-1.3696-3.3244c-2.9055-1.0151-6.7938-2.2235-7.3093-5.7628
		c0.0717-3.4567,1.5044-6.6804,2.1829-10.0441c0.0837-0.4147,0.1611-0.8306,0.2178-1.2504
		c0.2756-1.0803,0.2156-2.1198-0.0127-3.1365c-0.4346-1.9352-1.4905-3.7859-2.0819-5.666c-0.9076-1.9979-0.5961-4.275-1.2836-6.3052
		c-0.8271-0.231-1.6757-0.0806-2.4543,0.2095c-1.1128,0.395-2.2275,0.7839-3.3411,1.1763
		c-4.2866,1.5106-8.5828,2.994-12.8934,4.4335C321.178,596.0299,320.6729,596.1959,320.1681,596.363z"/>
	<path fill="none" d="M273.0606,553.887c-1.0311-0.0537-1.3695,1.0311-1.4662,1.869c0.1061,1.4686,0.6165,2.8368,1.1809,4.1884
		c0.3209,0.7686,0.6593,1.5317,0.9513,2.3047c0.4032,0.9211,0.717,1.9281,1.2283,2.8064c0.231,0.397,0.4984,0.7701,0.8394,1.0928
		c0.2789,0.061,0.5618,0.0854,0.8457,0.0981c1.2148,0.0543,2.4636-0.2061,3.6389,0.251c1.9441,0.4351,3.5284,1.7507,4.7422,3.2869
		c1.4331,1.7976,3.0637,3.4618,4.3359,5.3777c0.3584,0.5397,0.6931,1.0957,0.9811,1.6847c0.9774,2.2073,3.8668,1.6434,5.4352,3.1311
		c2.6638,2.4006,5.4028,5.0591,6.4017,8.6306c0.5638,2.4007,2.3417,4.216,3.9205,6.0205c0.1849-0.0033,0.3593-0.0378,0.5284-0.0867
		c0.6565-0.1896,1.2108-0.6664,1.7703-1.0464c5.7573-4.3019,11.665-8.3943,17.5299-12.5513
		c0.0219-0.0135,0.0425-0.032,0.0642-0.0462c0.9558-0.6242,1.7847-1.9108,0.9025-2.9453c-2.202-3.4534-3.448-7.4169-4.0656-11.4395
		c-0.6875-6.0581-0.4941-12.1592-0.2256-18.2334c0.1396-1.767-1.8745-1.2031-2.9431-1.0259
		c-3.4124,0.5732-6.8311,1.1089-10.2515,1.6318c-10.8645,1.6611-21.7627,3.1068-32.6589,4.5208
		C275.5176,553.5662,274.289,553.728,273.0606,553.887z"/>
	<linearGradient id="SVGID_1_" gradientUnits="userSpaceOnUse" x1="320.7473" y1="1117.0985" x2="320.7473" y2="-62.6206">
		<stop  offset="0" style="stop-color:#030844"/>
		<stop  offset="0.0843" style="stop-color:#435CFA"/>
		<stop  offset="0.1914" style="stop-color:#293881"/>
		<stop  offset="0.2834" style="stop-color:#1736A9"/>
		<stop  offset="0.3232" style="stop-color:#2643C5"/>
		<stop  offset="0.3881" style="stop-color:#435CFA"/>
		<stop  offset="0.4812" style="stop-color:#1038BD"/>
		<stop  offset="0.5876" style="stop-color:#143098"/>
		<stop  offset="0.6925" style="stop-color:#435CFA"/>
		<stop  offset="0.7709" style="stop-color:#1D2663"/>
		<stop  offset="0.868" style="stop-color:#435CFA"/>
		<stop  offset="1" style="stop-color:#03043B"/>
	</linearGradient>
	<path fill="url(#SVGID_1_)" d="M319.8123,594.8112c0.1185,0.5188,0.2373,1.0331,0.3558,1.5518
		c0.5048-0.1671,1.0099-0.3331,1.5142-0.5015C321.059,595.5114,320.4346,595.168,319.8123,594.8112z"/>
	<linearGradient id="SVGID_2_" gradientUnits="userSpaceOnUse" x1="66.2583" y1="1117.0985" x2="66.2583" y2="-62.6206">
		<stop  offset="0" style="stop-color:#030844"/>
		<stop  offset="0.0843" style="stop-color:#435CFA"/>
		<stop  offset="0.1914" style="stop-color:#293881"/>
		<stop  offset="0.2834" style="stop-color:#1736A9"/>
		<stop  offset="0.3232" style="stop-color:#2643C5"/>
		<stop  offset="0.3881" style="stop-color:#435CFA"/>
		<stop  offset="0.4812" style="stop-color:#1038BD"/>
		<stop  offset="0.5876" style="stop-color:#143098"/>
		<stop  offset="0.6925" style="stop-color:#435CFA"/>
		<stop  offset="0.7709" style="stop-color:#1D2663"/>
		<stop  offset="0.868" style="stop-color:#435CFA"/>
		<stop  offset="1" style="stop-color:#03043B"/>
	</linearGradient>
	<path fill="url(#SVGID_2_)" d="M65.6082,250.7725c-0.2498,1.3098-0.4385,2.7615-0.2953,4.1387
		c0.6461-2.4512,1.2931-4.8938,1.9404-7.3342C66.4423,248.4841,65.8013,249.5022,65.6082,250.7725z"/>
	<linearGradient id="SVGID_3_" gradientUnits="userSpaceOnUse" x1="273.2859" y1="1117.0985" x2="273.2859" y2="-62.6206">
		<stop  offset="0" style="stop-color:#030844"/>
		<stop  offset="0.0843" style="stop-color:#435CFA"/>
		<stop  offset="0.1914" style="stop-color:#293881"/>
		<stop  offset="0.2834" style="stop-color:#1736A9"/>
		<stop  offset="0.3232" style="stop-color:#2643C5"/>
		<stop  offset="0.3881" style="stop-color:#435CFA"/>
		<stop  offset="0.4812" style="stop-color:#1038BD"/>
		<stop  offset="0.5876" style="stop-color:#143098"/>
		<stop  offset="0.6925" style="stop-color:#435CFA"/>
		<stop  offset="0.7709" style="stop-color:#1D2663"/>
		<stop  offset="0.868" style="stop-color:#435CFA"/>
		<stop  offset="1" style="stop-color:#03043B"/>
	</linearGradient>
	<path fill="url(#SVGID_3_)" d="M273.9468,378.3953c-0.3652-0.1826-1.1011-0.5532-1.4662-0.7412
		c0.1547,0.7729,0.4406,1.4993,0.8121,2.1824c0.2661-0.4365,0.5322-0.8733,0.7983-1.3098
		C274.043,378.4829,273.9949,378.439,273.9468,378.3953z"/>
	<linearGradient id="SVGID_4_" gradientUnits="userSpaceOnUse" x1="297.4522" y1="1117.0985" x2="297.4522" y2="-62.6206">
		<stop  offset="0" style="stop-color:#030844"/>
		<stop  offset="0.0843" style="stop-color:#435CFA"/>
		<stop  offset="0.1914" style="stop-color:#293881"/>
		<stop  offset="0.2834" style="stop-color:#1736A9"/>
		<stop  offset="0.3232" style="stop-color:#2643C5"/>
		<stop  offset="0.3881" style="stop-color:#435CFA"/>
		<stop  offset="0.4812" style="stop-color:#1038BD"/>
		<stop  offset="0.5876" style="stop-color:#143098"/>
		<stop  offset="0.6925" style="stop-color:#435CFA"/>
		<stop  offset="0.7709" style="stop-color:#1D2663"/>
		<stop  offset="0.868" style="stop-color:#435CFA"/>
		<stop  offset="1" style="stop-color:#03043B"/>
	</linearGradient>
	<path fill="url(#SVGID_4_)" d="M281.669,390.5461c10.3909,12.949,20.8916,25.8099,31.5664,38.5298
		c-4.0006-8.2517-7.9871-16.5947-11.9709-25.0229C294.6902,399.6979,288.1796,395.1468,281.669,390.5461z"/>
	<linearGradient id="SVGID_5_" gradientUnits="userSpaceOnUse" x1="98.0927" y1="1117.0985" x2="98.0927" y2="-62.6206">
		<stop  offset="0" style="stop-color:#030844"/>
		<stop  offset="0.0843" style="stop-color:#435CFA"/>
		<stop  offset="0.1914" style="stop-color:#293881"/>
		<stop  offset="0.2834" style="stop-color:#1736A9"/>
		<stop  offset="0.3232" style="stop-color:#2643C5"/>
		<stop  offset="0.3881" style="stop-color:#435CFA"/>
		<stop  offset="0.4812" style="stop-color:#1038BD"/>
		<stop  offset="0.5876" style="stop-color:#143098"/>
		<stop  offset="0.6925" style="stop-color:#435CFA"/>
		<stop  offset="0.7709" style="stop-color:#1D2663"/>
		<stop  offset="0.868" style="stop-color:#435CFA"/>
		<stop  offset="1" style="stop-color:#03043B"/>
	</linearGradient>
	<path fill="url(#SVGID_5_)" d="M100.8934,412.7085c0.7825-0.0808,1.5381-0.2654,2.2688-0.521
		c-3.3555-1.7434-6.7386-3.2576-10.139-4.5396C95.1561,409.9602,97.7014,412.2137,100.8934,412.7085z"/>
	<linearGradient id="SVGID_6_" gradientUnits="userSpaceOnUse" x1="355.0228" y1="1117.0985" x2="355.0228" y2="-62.6206">
		<stop  offset="0" style="stop-color:#030844"/>
		<stop  offset="0.0843" style="stop-color:#435CFA"/>
		<stop  offset="0.1914" style="stop-color:#293881"/>
		<stop  offset="0.2834" style="stop-color:#1736A9"/>
		<stop  offset="0.3232" style="stop-color:#2643C5"/>
		<stop  offset="0.3881" style="stop-color:#435CFA"/>
		<stop  offset="0.4812" style="stop-color:#1038BD"/>
		<stop  offset="0.5876" style="stop-color:#143098"/>
		<stop  offset="0.6925" style="stop-color:#435CFA"/>
		<stop  offset="0.7709" style="stop-color:#1D2663"/>
		<stop  offset="0.868" style="stop-color:#435CFA"/>
		<stop  offset="1" style="stop-color:#03043B"/>
	</linearGradient>
	<path fill="url(#SVGID_6_)" d="M405.6001,1109.4391c52.5051,10.6727,118.5998-40.7524,169.8486-113.4714
		c4.4973-6.3834,9.0189-12.7626,13.5593-19.103c8.4583-12.3231,17.0466-24.793,25.8804-37.1169
		c18.7756-26.1835,39.04-50.3405,59.6992-69.2146c-0.1006-0.9901,0.068-2.0231,0.2144-2.9891
		c0.5103-2.6423,1.1816-5.2524,1.6328-7.9056c0.3812-2.3631,1.4177-4.5651,1.7185-6.939
		c-0.0107-6.6381,2.6586-12.8573,3.8401-19.3182c0.3008-1.6219,1.2084-4.173-0.8862-4.9464
		c-5.1128-1.348-10.3706-2.0731-15.5211-3.2707c-2.1591-0.3169-4.3556-1.2245-6.5361-0.8379
		c-1.7509,1.3051-2.884,3.2332-4.3448,4.8229c-0.7734,0.7573-1.4877,1.9818-2.7336,1.7938
		c-1.3374-1.0903-2.014-2.8143-2.0945-4.4952c-0.2686-3.3083-0.027-6.81-1.6167-9.8391c-2.2126-4.275-5.1611-8.1151-7.4921-12.3203
		c-6.0848-9.2805-13.5179-17.5729-21.1604-25.5805c-0.0924-0.095-0.1858-0.1902-0.2786-0.285
		c-1.4818,0.9683-2.9628,1.9446-4.4425,2.9357c-10.0751,21.3582-20.0295,42.9733-30.0549,64.6129
		c3.8225-17.2578,7.642-34.5208,11.4644-51.7797c-10.0037,7.0741-19.9236,14.2072-29.9895,20.9185
		c12.4541-17.3537,24.657-35.1492,37.0498-52.8062c0.1786-0.8033,0.3572-1.6043,0.5356-2.4075
		c-1.9478-1.7839-3.8691-3.5994-6.0945-5.0344c-1.4556-1.0043-3.1257-1.869-4.012-3.4748
		c-1.2621-2.0839-2.6531-4.1354-4.5972-5.6446c-1.606-1.4555-3.9744-2.159-4.8499-4.3019c-1.4822-3.158-4.6777-4.9786-7.8303-6.1064
		c-1.5952-0.623-3.3513-0.392-4.9785-0.8379c-1.52-0.7894-2.7499-2.0193-4.2698-2.7927c-1.3428-0.7197-2.8679-0.9775-4.2268-1.6328
		c-0.8591-0.9882-1.3049-2.2664-2.1482-3.2599c-1.3804-0.9882-2.9968-1.5897-4.2913-2.7015
		c-2.2556-1.8528-5.1665-2.4651-7.8357-3.4641c-3.2654-1.2137-6.5898-2.5671-10.1077-2.6907
		c-2.0569-0.0215-2.7981,2.8356-4.8818,2.739c-1.5791-0.1128-3.3298-0.3383-4.5276-1.4662
		c-4.5059-4.3288-8.1472-9.4309-11.9873-14.3289c-0.8002-1.1494-1.9924-2.1912-2.1804-3.6306
		c-0.2202-1.0848,0.9828-1.4446,1.697-1.9173c4.5168-2.3255,9.0925-4.6832,12.9971-7.9808
		c3.4695-3.0559,6.8315-7.1859,6.4502-12.1001c-0.3813-5.5425-1.5468-11.0045-2.6316-16.4449
		c-0.4727-2.5618-1.52-5.2901-0.4243-7.8305c1.9861-4.8902,3.1062-10.0884,3.9268-15.283
		c-8.8052,4.4557-17.7318,8.1279-26.7574,10.562c-9.7996,16.9095-19.7576,32.6343-30.0881,46.8547
		c3.8671-14.3576,7.7089-28.907,11.5309-43.642c-9.9968,0.6639-20.2163-0.5371-30.0559-3.7046
		c12.7723-5.1498,25.1963-13.5513,37.1462-23.996c3.8468-15.1945,7.6721-30.5557,11.4819-46.0768
		c1.7828,3.703,3.573,7.3677,5.3689,11.0013c1.7889-5.9615,2.9265-12.1284,3.2146-18.3433
		c0.1021-5.5532,0.2847-11.1442-0.6016-16.649c-1.144-6.9014-2.6423-13.8402-5.7358-20.1614
		c-1.7669-4.2214-4.2697-8.083-6.1333-12.2505c-0.7681-1.3052,0.623-2.4008,1.6918-2.8733c9.565-4.925,19.2645-9.592,28.69-14.7855
		c4.812-2.7122,9.6619-5.3545,14.5222-7.9755c1.7509-1.0043,4.1033-1.6648,4.6725-3.8776
		c-5.0968,0.2793-10.0377,1.7186-15.0593,2.5297c-15.5856,2.9485-31.1068,6.2354-46.5367,9.8981
		c-0.897,0.1719-1.9764,0.494-2.6692-0.3008c-0.6582-0.5878-1.3335-1.1566-2.0178-1.715c-3.1394,4.6843-6.3047,9.25-9.5094,13.6543
		c1.5411-5.7131,3.0773-11.4651,4.6107-17.2387c-2.7017-1.7664-5.5494-3.3066-8.5188-4.561
		c-5.9937-2.2771-11.6812-5.376-17.8843-7.0679c-0.1396-1.4016,0.1772-2.7712,0.811-4.0117
		c2.032-4.4618,4.0781-8.9177,6.1196-13.376c-1.2261-0.3342-2.4478-0.6971-3.6633-1.0912c1.7441-0.7032,3.4812-1.4725,5.2122-2.2941
		c4.6034-10.0764,9.1537-20.1763,13.4167-30.3987c0.9452-2.2234,2.0032-4.4253,2.4543-6.8153
		c-1.3213,0.3867-2.4275,1.203-3.303,2.2396c-7.1322,7.8948-14.6511,15.4298-21.6814,23.416
		c-6.5092,7.1216-12.8734,14.3772-19.1517,21.6921c-1.1923,1.1923-1.8368,3.3137-3.6842,3.5715
		c-1.8314-0.6499-3.3728-1.8691-5.0323-2.8358c-5.6339-3.3566-11.4933-6.3588-17.6373-8.6628
		c-1.4929-0.6927-3.609-1.0096-4.103-2.8518c-4.3772-13.4696-8.2386-27.111-12.6157-40.5861
		c-0.7493-2.3816-1.5164-4.7573-2.2793-7.1345c-3.6704,0.6277-7.3571,1.0012-11.0349,1.1179
		c1.2487,13.2698,2.6829,26.5227,4.184,39.7659c0.3276,1.1117-0.4242,2.2717-1.5844,2.3899
		c-2.2556,0.0483-4.506-0.2686-6.7456-0.478c-4.5005-0.537-9.0388-0.2739-13.5554-0.1934c-0.9399,0.0913-1.5845-0.6337-2.1805-1.219
		c-4.2589-4.6887-9.0441-8.8508-13.5878-13.2495c-9.1044-8.8186-18.3081-17.5342-27.574-26.1837
		c1.7797,7.7684,3.5613,15.5177,5.3452,23.2421c5.282,6.1534,10.6243,12.2559,15.8591,18.4521
		c1.1332,1.4017,2.5242,2.6155,3.4104,4.2052c-0.2202,1.3588-1.4447,2.1537-2.4167,2.9753
		c-2.0033,1.5521-3.9583,3.1902-5.5425,5.1774c-1.9551,2.363-3.303,5.1987-5.4996,7.3632
		c-0.7089,0.9506-1.9442,0.4135-2.8625,0.1558c-15.5374-5.7628-31.3002-10.8864-46.9127-16.4342
		c-16.2408-5.6069-32.5838-10.9078-48.9805-16.0369c-1.5735-0.6014-3.4908-0.9506-4.4468-2.4866
		c-1.7241-2.6692-3.1418-5.521-4.6887-8.2922c-1.3103-2.3202-1.9871-4.9625-3.5499-7.1431
		c-2.1107-3.0076-3.8131-6.2729-5.4781-9.5383c-7.5564-14.635-14.1677-29.7266-20.6394-44.8611
		c-2.0085-4.8228-3.7648-9.7531-5.9614-14.49c-1.391-3.0076-1.9763-6.2891-2.8894-9.447c-0.188-0.6611-0.3848-1.3193-0.5762-1.9792
		c-6.2374-1.0533-12.5168-1.4723-18.7358-1.1353c3.4243-8.2545,6.8765-16.3423,10.3535-24.2822
		c-1.094-3.0469-2.1774-6.0974-3.2664-9.1458c-8.3265-12.3691-16.8232-23.7451-25.612-33.8792
		c5.402,2.3037,10.7366,5.1868,15.9989,8.5474c-2.652-6.6121-5.3376-13.2107-8.3129-19.6846
		c-2.7122-5.8809-4.6027-12.0947-7.2396-18.0078c-1.3803-2.9055-3.0505-5.7949-5.6553-7.7714
		c-2.5081-1.9496-5.1558-3.7433-7.4222-5.9883c-1.6918-1.7294-4.1354-2.7175-5.4244-4.8068
		c-0.725-2.7175-0.0161-5.5962,0.3276-8.3298c0.2148-1.9979,2.2664-2.8088,3.5983-3.9905c2.5511-1.8904,4.608-4.7046,4.8228-7.9539
		c0.0054-2.0409-0.4243-4.0764-0.1879-6.1226c9.1784-1.826,18.5717-3.8884,26.6008-8.9314
		c2.8465-1.7455,5.3922-4.1409,6.6973-7.2773c1.0632-2.7014,3.754-4.1782,5.1772-6.6327c1.4554-2.4008,2.0784-5.4083,1.2191-8.1259
		c-0.7247-2.3748-1.8655-4.5769-2.9875-6.7837c-2.902-0.1501-5.8014-0.1677-8.6873-0.0049c1.5057-3.6298,3.018-7.2201,4.534-10.7888
		c-0.8864-1.3203-2.0824-2.624-1.7261-4.3402c0.3974-2.8412,3.2332-4.1031,5.274-5.6393c0.5585-1.74-0.811-3.8829,0.3221-5.5801
		c0.5441-0.8126,1.2335-1.5077,1.9213-2.2024c-0.585-0.8916-1.1704-1.7817-1.7571-2.6636c-0.5713,0.1455-1.1421,0.295-1.7163,0.4137
		c-1.4393-0.8217-3.0828-1.9335-3.4426-3.6627c0.2186-0.948,0.6809-1.7961,1.1892-2.6273c-1.151-1.6749-2.3062-3.3273-3.4646-4.9626
		c-1.1265,1.3717-2.5276,2.8789-4.4701,2.5361c-1.9495-0.3652-4.2535-0.6982-5.5103-2.4061
		c-0.6015-1.4714-0.0483-3.2063-0.7089-4.6562c-0.8701-0.9399-1.9549-1.7349-3.1741-2.1268
		c-2.5027-0.478-5.043,0.5853-7.5296-0.0967c0.0054-1.7777-0.1021-3.5553-0.3545-5.3116c-2.202,1.4287-4.9249,0.1343-7.2504,1.144
		c-1.6703,0.5532-0.913,2.6423-1.2675,3.9528c-0.2148,2.0677-2.7712,2.2074-4.3502,1.8207
		c-1.7509-0.6123-1.3695-2.8518-1.9603-4.2644c-1.0742-2.9324-0.9721-6.1171-0.6499-9.173c0.8432-2.1591,3.6735-2.3632,4.839-4.2697
		c1.2943-1.912,2.4759-3.9368,4.1246-5.5693c1.7347-1.5576,3.9528-2.433,5.7466-3.9153c4.028-3.1257,6.7026-7.5995,8.7488-12.1914
		c2.4759-5.8164,4.8927-11.6919,8.0614-17.1753c2.5886-4.7209,6.5253-8.5287,10.5748-11.9927
		c2.927-2.5082,6.8046-3.8132,9.3126-6.7939c2.9486-3.7058,1.2246-8.8186,3.2761-12.8682c1.2568-2.7766,3.1418-5.8809,1.9066-8.9958
		c-0.9989-2.2395-1.7777-4.5918-3.0774-6.681c-2.5886,1.4984-3.421,4.5006-4.9894,6.8475c-1.2673,1.8905-2.073,4.0281-3.1202,6.042
		c-1.3373,2.1699-3.0828,4.1838-5.3439,5.4137c-5.0483,2.1967-10.8004,0.9344-15.9078,2.8894
		c-2.6048,0.9667-5.0538,2.3256-7.3202,3.9205c-2.3577,1.6328-4.1354,4.2214-7.1,4.8391c0.2095-1.1978,0.4082-2.3954,0.5746-3.5984
		c-2.7283-0.1719-5.4619,0.0752-8.1902-0.145c-0.5424-1.8207,0.4136-3.5125,0.9614-5.1934c-2.7712-0.2632-5.0538,1.509-7.2128,2.97
		c-2.5994,1.783-4.9034,4.0547-7.8197,5.3276c-0.8915-0.4727-1.434-1.4232-1.4178-2.4275
		c-0.1289-4.4954,1.0848-8.8992,1.1976-13.3838c0.0955-2.7834-1.2634-5.2817-2.7624-7.5364
		c-1.6459,1.2451-3.2852,2.5214-4.9084,3.8644c3.8509,11.4718,7.6691,23.1635,11.4587,35.0726
		c-9.6655-7.6143-19.7629-13.5125-30.0067-17.2297C81.8355,60.2338,71.8938,73.2803,62.1763,87.6963
		c2.9996-11.5134,6.0122-22.9059,9.0394-34.1838c-2.7216,1.8271-4.924,4.334-7.1274,6.7412
		c-2.7498,3.8239-4.1676,8.4319-4.6832,13.0775c-1.0848,5.7197,0.7036,11.4932,2.8734,16.7404
		c2.3201,4.8174,5.0162,9.4846,8.3997,13.6306c0.7358,0.9131,1.3373,1.9229,1.8744,2.9647
		c0.9667,2.0731,3.5231,2.5134,4.9839,4.1354c0.6498,2.1052-1.2836,3.7595-1.5253,5.7573
		c-0.2792,1.2622-0.1343,2.9539-1.5414,3.5823c-1.4393-0.188-2.8035-0.7466-4.2482-0.8916c-1.9227-0.2148-3.6843,1.085-5.607,0.7144
		c-2.0623-0.2095-4.5651-1.0742-6.2568,0.6016c-0.3599,1.783,0.0268,3.6412-0.4243,5.4082
		c-0.4243,0.8916-1.0902,1.6327-1.6918,2.4006c-1.579-0.8324-1.6756-2.6907-2.1107-4.2267
		c-2.6208,1.6649-5.6338-0.1932-8.4427,0.333c-2.1268,2.0033,0.8378,5.1666-0.7734,7.4007
		c-0.9828,1.4984-3.0559,0.897-4.5651,1.1118c-0.2094-1.3267-0.2309-2.7875-1.1976-3.8347
		c-0.2471,1.6755,0.0967,3.3352,0.4941,4.9517c-0.9989,0.3867-2.1053,1.4287-3.1096,0.4941
		c-1.6434-1.1547-3.6144-1.5574-5.5962-1.4608c0.3867,1.8798,1.7347,3.2922,2.7122,4.8766c0.9721,1.203,0.1826,2.8625-0.7143,3.8562
		c-1.1063,1.2083-2.9001,0.7142-4.3341,0.9182c1.2567,1.8691,3.5016,2.7338,4.7745,4.6028
		c0.8808,1.0634,0.9453,2.4973,1.2568,3.7916c0.1235,1.681,2.6907,1.6971,2.7927,3.4211c0.376,2.9753-0.1504,6.1709-1.9603,8.6252
		c-1.4178,1.9442-1.9711,4.3448-3.3352,6.3159c-1.7831,2.5135-3.1365,5.3224-4.173,8.2172
		c-0.9667,2.696,0.1611,5.5747,1.4716,7.9431c1.1332,2.2074,3.695,3.2439,4.6349,5.5747c1.1547,2.7499,2.9377,5.2526,5.4297,6.939
		c7.308,5.2966,16.0512,7.936,24.7654,9.974c5.4045-3.9532,10.8894-7.4277,16.4612-10.3259
		c3.795-13.6664,7.6133-27.1293,11.4603-40.3837c3.8528,10.47,7.6721,21.1565,11.4603,32.0588
		c12.2217-2.4819,25.0553-1.6466,37.1678,2.2864c-10.2881,4.1411-20.3962,10.4719-30.0801,18.5056
		c3.851,11.4495,7.6692,23.119,11.4587,35.0061c-9.6655-7.6144-19.7629-13.5126-30.0067-17.2299
		c-8.4369,9.2036-16.601,19.5931-24.5968,30.9242c2.7498,2.3981,6.0945,4.017,9.3112,5.6946
		c-0.5102,0.7573-0.7949,1.9335-1.8959,1.9711c-3.3459,0.7357-7.868,0.7948-9.5168,4.3932
		c-0.7197,2.6799-0.9077,5.7412,0.188,8.3513c1.8797,3.55,6.1064,4.302,9.5275,5.6123c1.1493,0.2471,0.6552,1.6812,0.0698,2.2504
		c-1.971,1.0096-4.3932,1.0311-6.1387,2.4813c-1.3212,1.4607-1.2836,3.6251-1.2675,5.4834c0.0269,2.3147,1.826,3.9905,3.1311,5.709
		c1.9495,2.5082,4.8604,3.8992,7.6102,5.333c1.4072,0.623,1.434,2.347,1.5736,3.6628c0.2686,9.2429,1.2299,18.459,1.101,27.7126
		c-0.0645,2.1589,0.8647,4.4576-0.2095,6.4985c-0.8378,2.1804-3.1633,3.8185-2.8787,6.3535
		c-0.0107,1.0258,0.0967,2.0623-0.0161,3.0935c-0.5961,1.7668-2.4759,2.9539-2.4974,4.9517
		c-0.1021,2.1589-0.7304,4.8175,1.0043,6.5254c1.4501,1.4446,2.5779,3.1687,3.9474,4.6885
		c0.7452,0.7621,1.0744,1.7424,1.3579,2.7432c3.3785-12.0902,6.7749-24.0286,10.1951-35.7928
		c3.8602,10.4677,7.6866,21.1527,11.4818,32.0546c6.963-1.412,14.1241-1.7432,21.2374-1.0422
		c0.1042-0.3992,0.2137-0.7968,0.3365-1.1904c0.3571,0.4244,0.8192,0.8208,1.0284,1.3416c4.9053,0.5752,9.7806,1.635,14.5441,3.1818
		c-4.408,1.7645-8.78,3.954-13.1031,6.4847c0.3214,2.1736,0.6115,4.351,0.7853,6.5433c0.5639,7.2987,2.0032,14.4955,2.8196,21.7672
		c0.6874,7.5726,2.6262,14.9519,3.9742,22.4226c1.1977,7.3147,2.8089,14.5491,4.0764,21.8531
		c1.2621,4.7262,2.1697,9.5328,2.8088,14.3827c2.0087,10.1344,4.0495,20.2581,6.2568,30.3496
		c3.3405,16.1548,7.9324,32.0949,14.3289,47.3154c1.4716,3.3997,2.7068,6.8959,4.2374,10.2687
		c4.4147,9.2483,6.5576,19.5062,11.9713,28.2872c2.7229,4.3557,7.7821,7.1376,9.1622,12.3257
		c4.0173,11.9981,7.8628,24.0659,12.4116,35.8814c3.8669,9.984,7.3418,20.1238,11.3805,30.0434
		c0.5156,1.1332,0.7142,2.4168,0.3062,3.6252c-1.5468,5.1398-3.8024,10.0432-5.3654,15.1775
		c-0.3385,1.0428-0.6619,2.09-0.979,3.1387c0.78,3.2464,1.5621,6.4728,2.3411,9.731c12.6814,14.2667,24.8931,30.1012,37.0793,46.811
		c-9.8911-6.3753-19.843-12.1746-29.9893-16.8267c3.8342,16.3591,7.6538,32.8329,11.4644,49.4133
		c-9.8762-19.7003-19.8246-38.5838-30.0547-56.3906c-0.2375-0.0689-0.4769-0.1262-0.7146-0.1934
		c-0.9705,4.2889-1.7955,8.6107-2.4611,12.9534c-1.1063,6.9926,0.6123,13.9958,0.1074,21.01
		c-0.2362,3.2062,0.5156,6.3857,1.4984,9.4147c0.9561,2.7605,3.8455,4.0334,5.4941,6.2998c1.3643,1.8582,3.3245,3.0935,5.0217,4.608
		c0.6337,1.3159,0.1771,2.9217,0.4296,4.361c0.1182,1.9442,2.2772,3.2277,2.0248,5.2364
		c-0.6016,4.3824-1.6595,8.6951-2.2826,13.0721c-0.2095,2.1913-0.3759,5.2418,2.0946,6.2515
		c5.7681,2.8411,12.3848,0.6874,17.981-1.536c1.9924-0.9613,3.4963,1.246,4.9946,2.202c1.3267,1.1547,3.679,1.4448,4.0227,3.4534
		c1.8689,9.4792,5.3975,18.5395,9.1624,27.4065c0.2686,0.6069,0.3975,1.246,0.3867,1.9227
		c-0.7842,5.5425-2.6799,11.0098-2.1644,16.6705c0.2792,6.7133,0.4081,13.5663,2.3632,20.0486
		c1.1331,3.8991,3.3136,7.3525,4.9946,11.0206c1.8475,4.13,0.3062,8.6199,0.145,12.9111c-0.2095,1.8904,0.1235,3.9904-0.9668,5.6768
		c-4.1686,7.0679-8.6936,13.925-12.7625,21.0543c20.8253,28.0624,41.4014,59.8211,63.5086,90.6636
		C332.3421,1053.876,369.6057,1093.3933,405.6001,1109.4391z M498.8858,804.9383c3.8394-15.1887,7.6576-30.5436,11.4602-46.0577
		c3.7911,7.8962,7.6129,15.634,11.4599,23.2197c12.7207-14.1176,24.9612-29.8559,37.1681-46.5088
		c-9.9366,20.7606-19.9016,40.931-30.0978,60.2654c3.801,7.239,7.6292,14.3495,11.4763,21.3414
		c-9.8601,5.2404-19.8782,9.5554-30.0216,12.3135c-9.7994,16.8876-19.7574,32.5902-30.0881,46.788
		c3.8732-14.3575,7.7208-28.9073,11.5487-43.6433c-10.0027,0.6664-20.2284-0.5341-30.0737-3.7034
		C474.4978,823.8004,486.929,815.3918,498.8858,804.9383z M498.8858,984.1097c3.8394-15.1888,7.6576-30.5437,11.4602-46.0578
		c3.7911,7.8963,7.6129,15.6341,11.4599,23.2198c12.7207-14.1176,24.9612-29.8559,37.1681-46.5088
		c-9.9336,20.7761-19.8954,40.9625-30.088,60.3137c3.7979,7.2547,7.6226,14.3813,11.4666,21.3895
		c-9.8606,5.2186-19.879,9.5114-30.0216,12.2468c-9.7996,16.9095-19.7576,32.6344-30.0881,46.8549
		c3.8698-14.3676,7.7141-28.927,11.5388-43.6724c-10.0006,0.6429-20.2228-0.5809-30.0638-3.7706
		C474.4978,1002.9718,486.929,994.5632,498.8858,984.1097z M331.271,823.7371c-10.147-19.7556-20.083-40.2506-30.0066-61.2452
		c-10.0754-6.6741-20.0012-13.7944-30.0066-20.878c3.824-6.275,7.6536-12.5457,11.4763-18.8276
		c-10.0432-21.6663-20.0117-43.3267-30.0979-64.7479c12.4859,17.4648,24.7268,35.3325,37.1681,53.0178
		c3.8271-6.3528,7.651-12.7451,11.4601-19.1913c3.8142,17.0508,7.6323,34.0401,11.4602,50.959
		c12.1802,16.3019,24.4224,31.5746,37.1678,45.0807c-10.1815-3.4067-20.2035-8.2586-30.0977-13.932
		C323.6104,790.6619,327.4339,807.2529,331.271,823.7371z M424.3953,945.6183c3.792,12.16,7.6122,24.1028,11.4646,35.8259
		c-10.3638-7.1182-20.3774-16.3079-30.0549-27.0659c-9.8303,3.3233-20.0498,4.6859-30.0548,4.1625
		c3.8538-8.8787,7.6754-17.9517,11.4645-27.2213c-10.2986-14.0239-20.2246-29.5566-29.9894-46.2783
		c11.9469,11.7766,24.2623,21.7013,37.0499,28.6451c3.8604-9.7782,7.6871-19.7672,11.4817-29.9672
		c3.8003,13.1605,7.626,26.1102,11.4817,38.8449c12.1918,2.765,25.0212,2.2556,37.1462-1.3938
		C444.7328,931.0895,434.7193,939.4092,424.3953,945.6183z M424.3878,766.4219c3.7946,12.1686,7.6172,24.1199,11.4722,35.851
		c-10.364-7.1414-20.3773-16.353-30.0549-27.1324c-9.8292,3.3448-20.0485,4.7305-30.0548,4.2292
		c3.8564-8.8849,7.6807-17.9644,11.4722-27.2407c-10.3013-14.0493-20.2297-29.6076-29.9972-46.3555
		c11.9537,11.7831,24.2764,21.7125,37.0717,28.6568c3.853-9.783,7.6725-19.7759,11.46-29.9789
		c3.7932,13.158,7.6116,26.106,11.4601,38.84c12.1985,2.7703,25.036,2.2626,37.168-1.3889
		C444.7306,751.8457,434.715,760.189,424.3878,766.4219z M394.2969,555.259c3.853-9.7831,7.6725-19.7761,11.46-29.979
		c3.7932,13.158,7.6116,26.106,11.4601,38.84c12.1985,2.7704,25.036,2.2627,37.168-1.3889
		c-9.652,9.9193-19.6654,18.239-29.9894,24.4481c3.792,12.16,7.6121,24.1028,11.4645,35.8257
		c-10.3636-7.1182-20.3773-16.3078-30.0549-27.0657c-9.8302,3.3233-20.0497,4.6859-30.0548,4.1625
		c3.8538-8.8787,7.6754-17.9518,11.4644-27.2214c-10.2986-14.0239-20.2246-29.5565-29.9894-46.2782
		C369.179,538.3853,381.5016,548.3147,394.2969,555.259z M215.3064,541.4805c3.8369,16.37,7.6589,32.855,11.4722,49.4466
		c-9.8765-19.7225-19.825-38.628-30.0549-56.4572c-9.8911-2.8485-20.0522-4.2346-30.0549-3.6702
		c3.7917-9.1405,7.6161-18.087,11.4724-26.8416c-9.726-14.9763-19.6609-28.6206-29.9973-40.5621
		c12.7567,5.4402,25.1413,14.0802,37.0715,24.726c3.7896-8.2944,7.6108-16.4165,11.4601-24.3713
		c3.8593,15.7402,7.6996,31.6288,11.5267,47.658c12.6892,14.2729,24.908,30.1162,37.1013,46.8357
		C235.4096,551.8892,225.455,546.1105,215.3064,541.4805z M245.8045,479.6109c-3.0505-6.7778-7.0087-13.0884-10.4137-19.6836
		c-0.9022-1.8689-2.3684-3.7166-1.9066-5.9238c1.7563,0.5264,3.2493,1.6166,4.8766,2.4221
		c28.2067,14.3773,56.6015,28.4055,85.1411,42.1061c1.1171,0.4564,0.6981,1.8422,0.6874,2.782
		c-0.9452,7.2343,0.4351,14.5384,2.4382,21.4773c0.4243,1.6757,2.0195,3.9581,0.0162,5.2202
		c-4.9464,2.3363-10.1237,4.1998-15.2097,6.2139c-1.6307,0.6569-3.261,1.3158-4.8915,1.9735
		c0.9534,4.2363,1.9082,8.4595,2.8625,12.6875c3.4204-0.5229,6.8391-1.0586,10.2515-1.6318
		c1.0686-0.1772,3.0828-0.7411,2.9431,1.0259c-0.2686,6.0742-0.4619,12.1753,0.2256,18.2334
		c0.6176,4.0226,1.8635,7.9861,4.0656,11.4395c0.8822,1.0344,0.0533,2.321-0.9025,2.9453c2.8481,3.585,5.7101,7.0934,8.5874,10.5298
		c1.1135-0.3924,2.2283-0.7813,3.3411-1.1763c0.7787-0.29,1.6272-0.4404,2.4543-0.2095c0.6875,2.0302,0.376,4.3073,1.2836,6.3052
		c0.5914,1.8801,1.6473,3.7308,2.0819,5.666c2.0414,2.2789,4.09,4.5306,6.1559,6.7199c-2.1277-0.7119-4.2468-1.5006-6.361-2.3331
		c-0.6785,3.3637-2.1112,6.5874-2.1829,10.0441c0.5155,3.5392,4.4038,4.7477,7.3093,5.7628
		c1.4502,0.392,1.1172,2.1858,1.3696,3.3244c1.3962,9.4255,3.8077,18.6684,6.6434,27.7556c0.5316,2.3577-0.0591,4.8068,0.376,7.186
		c0.5585,3.1526,1.6273,6.622,4.5328,8.3836c3.0022,2.4114,6.5522,3.9313,10.0216,5.5371c1.4823,0.5639,0.9828,2.4061,0.8485,3.6199
		c-0.2362,0.9828-0.4403,2.9001-1.9119,2.4382c-6.5845-2.884-12.7017-6.8315-19.5922-9.0012
		c-2.2128-0.7841-4.7692-0.4296-6.7562-1.8367c-1.9927-0.9721-3.0774-3.0935-5.0861-4.0226
		c-1.9442-0.9828-4.0011-2.0408-5.2472-3.8883c-0.4351-1.3374-0.2847-2.8035-0.7948-4.1086
		c-0.682-0.9185-1.6434-1.5682-2.4061-2.3954c-0.5209-0.9935-0.6122-2.1536-1.2244-3.0881c-0.6875-1.1332-1.7349-2.1321-1.896-3.507
		c-0.5531-3.6306-0.9559-7.5887-3.3835-10.5319c-0.5961-0.8378-1.6326-1.6542-1.2996-2.8089
		c0.3696-1.8235,0.835-3.7867,0.8317-5.6931c-1.0227-2.048-2.0428-4.1075-3.0624-6.1694c-0.8522-0.5951-1.7708-1.1243-2.5171-1.8327
		c-0.9827-0.9238-2.2825-1.3319-3.4479-1.9442c-0.9882-1.2138-1.2352-2.9163-2.4115-4.0012
		c-1.0634-1.0741-2.8625-0.9344-3.8346-2.0999c-0.4833-2.014,1.391-3.405,1.7992-5.2095c-0.3813-2.4276-2.0033-4.4738-2.4597-6.8691
		c0.0676-0.8381,0.7264-1.2767,1.4309-1.5522c-0.8528-1.7781-1.7048-3.5637-2.5568-5.3499
		c-0.1692,0.0489-0.3435,0.0834-0.5284,0.0867c-1.5789-1.8045-3.3567-3.6198-3.9205-6.0205
		c-0.9989-3.5715-3.7379-6.23-6.4017-8.6306c-1.5684-1.4877-4.4578-0.9238-5.4352-3.1311c-0.288-0.589-0.6227-1.145-0.9811-1.6847
		c-4.2422-2.9417-8.4785-5.9187-12.717-8.9155c-0.2839-0.0127-0.5668-0.0371-0.8457-0.0981
		c-0.3409-0.3226-0.6084-0.6958-0.8394-1.0928c-1.2322-0.8712-2.4629-1.7417-3.697-2.6128
		c0.5056-0.8328,1.0117-1.6658,1.5175-2.4983c-0.5645-1.3516-1.0748-2.7197-1.1809-4.1884c0.0967-0.8379,0.4351-1.9227,1.4662-1.869
		c1.2284-0.1589,2.457-0.3208,3.6855-0.4802c1.3071-2.151,2.6138-4.302,3.9202-6.4543c-1.1328,0.4924-2.2709,0.9729-3.4004,1.4727
		c-2.0248,0.7466-3.8992,1.928-6.0151,2.3953c-0.6499-0.3545-0.7734-1.1116-0.9399-1.7454
		c-0.8164-3.6038-1.4823-7.2344-2.1428-10.865c-0.8379-3.7863-1.7993-7.5457-2.4491-11.3696
		c-0.5638-3.8079-2.5027-7.202-3.7809-10.7842C256.7714,503.8111,251.551,491.5928,245.8045,479.6109z M252.6362,837.2099
		c12.4859,17.4648,24.7268,35.3325,37.1681,53.0177c3.8271-6.3528,7.651-12.7452,11.4601-19.1915
		c3.8142,17.0508,7.6323,34.0402,11.4602,50.9592c12.1802,16.3019,24.4224,31.5745,37.1678,45.0807
		c-10.1776-3.3829-20.1968-8.2108-30.088-13.86c3.8123,16.6973,7.6326,33.2964,11.4666,49.7889
		c-10.1469-19.7779-20.083-40.2952-30.0066-61.312c-10.0753-6.6516-20.0012-13.7499-30.0066-20.8113
		c3.8208-6.2919,7.6471-12.5795,11.4666-18.8782C272.6846,880.322,262.7193,858.6464,252.6362,837.2099z"/>
	<linearGradient id="SVGID_7_" gradientUnits="userSpaceOnUse" x1="382.6118" y1="1117.0985" x2="382.6118" y2="-62.6206">
		<stop  offset="0" style="stop-color:#030844"/>
		<stop  offset="0.0843" style="stop-color:#435CFA"/>
		<stop  offset="0.1914" style="stop-color:#293881"/>
		<stop  offset="0.2834" style="stop-color:#1736A9"/>
		<stop  offset="0.3232" style="stop-color:#2643C5"/>
		<stop  offset="0.3881" style="stop-color:#435CFA"/>
		<stop  offset="0.4812" style="stop-color:#1038BD"/>
		<stop  offset="0.5876" style="stop-color:#143098"/>
		<stop  offset="0.6925" style="stop-color:#435CFA"/>
		<stop  offset="0.7709" style="stop-color:#1D2663"/>
		<stop  offset="0.868" style="stop-color:#435CFA"/>
		<stop  offset="1" style="stop-color:#03043B"/>
	</linearGradient>
	<path fill="url(#SVGID_7_)" d="M382.3692,386.9453c-0.9653-1.3733-1.9302-2.7478-2.8894-4.147
		c-0.2837,3.574,0.321,7.1611,0.5269,10.7314c0.343,4.929,0.7302,9.8545,1.1433,14.7776c1.5618-3.7014,3.1174-7.4407,4.6683-11.2075
		C384.6763,393.7124,383.5264,390.3277,382.3692,386.9453z"/>
	<linearGradient id="SVGID_8_" gradientUnits="userSpaceOnUse" x1="73.0162" y1="1117.0985" x2="73.0162" y2="-62.6206">
		<stop  offset="0" style="stop-color:#030844"/>
		<stop  offset="0.0843" style="stop-color:#435CFA"/>
		<stop  offset="0.1914" style="stop-color:#293881"/>
		<stop  offset="0.2834" style="stop-color:#1736A9"/>
		<stop  offset="0.3232" style="stop-color:#2643C5"/>
		<stop  offset="0.3881" style="stop-color:#435CFA"/>
		<stop  offset="0.4812" style="stop-color:#1038BD"/>
		<stop  offset="0.5876" style="stop-color:#143098"/>
		<stop  offset="0.6925" style="stop-color:#435CFA"/>
		<stop  offset="0.7709" style="stop-color:#1D2663"/>
		<stop  offset="0.868" style="stop-color:#435CFA"/>
		<stop  offset="1" style="stop-color:#03043B"/>
	</linearGradient>
	<path fill="url(#SVGID_8_)" d="M72.3973,223.6565c0.3459,0.2828,0.694,0.5586,1.0448,0.8259
		c0.0644-0.2378,0.1285-0.4778,0.193-0.7153C73.2235,223.7201,72.8096,223.6968,72.3973,223.6565z"/>
	<linearGradient id="SVGID_9_" gradientUnits="userSpaceOnUse" x1="114.9967" y1="1117.0985" x2="114.9967" y2="-62.6206">
		<stop  offset="0" style="stop-color:#030844"/>
		<stop  offset="0.0843" style="stop-color:#435CFA"/>
		<stop  offset="0.1914" style="stop-color:#293881"/>
		<stop  offset="0.2834" style="stop-color:#1736A9"/>
		<stop  offset="0.3232" style="stop-color:#2643C5"/>
		<stop  offset="0.3881" style="stop-color:#435CFA"/>
		<stop  offset="0.4812" style="stop-color:#1038BD"/>
		<stop  offset="0.5876" style="stop-color:#143098"/>
		<stop  offset="0.6925" style="stop-color:#435CFA"/>
		<stop  offset="0.7709" style="stop-color:#1D2663"/>
		<stop  offset="0.868" style="stop-color:#435CFA"/>
		<stop  offset="1" style="stop-color:#03043B"/>
	</linearGradient>
	<path fill="url(#SVGID_9_)" d="M114.3728,400.4975c0.0852-0.234,0.1766-0.465,0.248-0.7054
		c0.6767-2.1965-0.3062-4.4146-0.2041-6.6273c1.7347-1.955,3.5715-3.9635,4.1945-6.5898c0.4232-1.144,0.574-2.338,0.6513-3.5438
		c-2.8744,2.0254-5.7227,4.1873-8.5316,6.5112C111.9485,393.1693,113.1616,396.8264,114.3728,400.4975z"/>
	<linearGradient id="SVGID_10_" gradientUnits="userSpaceOnUse" x1="521.7053" y1="1117.0985" x2="521.7053" y2="-62.6206">
		<stop  offset="0" style="stop-color:#030844"/>
		<stop  offset="0.0843" style="stop-color:#435CFA"/>
		<stop  offset="0.1914" style="stop-color:#293881"/>
		<stop  offset="0.2834" style="stop-color:#1736A9"/>
		<stop  offset="0.3232" style="stop-color:#2643C5"/>
		<stop  offset="0.3881" style="stop-color:#435CFA"/>
		<stop  offset="0.4812" style="stop-color:#1038BD"/>
		<stop  offset="0.5876" style="stop-color:#143098"/>
		<stop  offset="0.6925" style="stop-color:#435CFA"/>
		<stop  offset="0.7709" style="stop-color:#1D2663"/>
		<stop  offset="0.868" style="stop-color:#435CFA"/>
		<stop  offset="1" style="stop-color:#03043B"/>
	</linearGradient>
	<path fill="url(#SVGID_10_)" d="M524.6008,599.7693c-1.745-1.2845-3.7288-2.1678-5.791-2.8402
		c1.0043,2.0021,2.01,3.9949,3.0178,5.976C522.7562,601.8743,523.6771,600.8171,524.6008,599.7693z"/>
	<linearGradient id="SVGID_11_" gradientUnits="userSpaceOnUse" x1="533.128" y1="1117.0985" x2="533.128" y2="-62.6206">
		<stop  offset="0" style="stop-color:#030844"/>
		<stop  offset="0.0843" style="stop-color:#435CFA"/>
		<stop  offset="0.1914" style="stop-color:#293881"/>
		<stop  offset="0.2834" style="stop-color:#1736A9"/>
		<stop  offset="0.3232" style="stop-color:#2643C5"/>
		<stop  offset="0.3881" style="stop-color:#435CFA"/>
		<stop  offset="0.4812" style="stop-color:#1038BD"/>
		<stop  offset="0.5876" style="stop-color:#143098"/>
		<stop  offset="0.6925" style="stop-color:#435CFA"/>
		<stop  offset="0.7709" style="stop-color:#1D2663"/>
		<stop  offset="0.868" style="stop-color:#435CFA"/>
		<stop  offset="1" style="stop-color:#03043B"/>
	</linearGradient>
	<path fill="url(#SVGID_11_)" d="M537.3623,632.514c-0.0348-4.5951-0.5139-9.1831-1.7571-13.6099
		c-0.9524-2.9581-1.969-5.9289-3.3225-8.7305c-1.1273,2.1685-2.2562,4.3307-3.389,6.4789
		C531.7017,622.0159,534.5281,627.2868,537.3623,632.514z"/>
	<path fill="#FFFFFF" d="M92.1829,48.9461c10.2438,3.7173,20.3412,9.6155,30.0067,17.2297
		c-3.7896-11.9092-7.6078-23.6008-11.4587-35.0726c1.6233-1.343,3.2625-2.6193,4.9084-3.8644
		c-0.1033-0.1553-0.2054-0.3129-0.3096-0.4658c-0.4404-0.6982-1.1708-1.3159-2.0516-1.0581
		c-2.6639,0.3813-3.4587,3.3406-5.2632,4.9088c-3.4855,3.3567-8.6629,3.3782-12.8036,5.4889
		c-3.5124,2.0085-5.1666,5.8862-7.9271,8.6736c-4.0333,4.0709-9.9679,4.957-14.7209,7.9001
		c-0.465,0.2544-0.9115,0.5334-1.3475,0.8262c-3.0272,11.278-6.0398,22.6704-9.0394,34.1838
		C71.8938,73.2803,81.8355,60.2338,92.1829,48.9461z"/>
	<path fill="#FFFFFF" d="M173.0374,132.0486c-1.7131-0.5371-3.4156-1.1387-4.9624-2.0732
		c-0.0878,0.1084-0.1809,0.2207-0.2722,0.3319c1.1584,1.6354,2.3136,3.2877,3.4646,4.9626
		C171.9082,134.2221,172.6242,133.2016,173.0374,132.0486z"/>
	<path fill="#FFFFFF" d="M175.3561,172.3655c-0.2914-0.5732-0.5819-1.1465-0.8632-1.7234c-0.752-1.6542-2.1322-2.9001-2.9646-4.5006
		c-0.3813-1.4071,0.2041-2.8948-0.1396-4.2911c-0.0586-0.0931-0.1235-0.1858-0.1859-0.2786
		c-1.516,3.5687-3.0283,7.1591-4.534,10.7888C169.5547,172.1978,172.4541,172.2153,175.3561,172.3655z"/>
	<path fill="#FFFFFF" d="M179.4177,140.6846c-1.4397-0.2085-2.8123,0.113-4.1807,0.4617c0.5867,0.8818,1.1721,1.772,1.7571,2.6636
		C177.9292,142.8657,178.8609,141.9223,179.4177,140.6846z"/>
	<path fill="#FFFFFF" d="M381.1614,383.4062c-0.2096-0.8593-0.8379-1.4554-1.5415-1.9174
		c-0.0637,0.4363-0.1055,0.8729-0.1401,1.3096c0.9592,1.3992,1.9241,2.7737,2.8894,4.147
		C381.9656,385.7659,381.5664,384.585,381.1614,383.4062z"/>
	<path fill="#FFFFFF" d="M385.8183,397.0999c-1.5509,3.7668-3.1066,7.5061-4.6683,11.2075
		c0.3544,4.2236,0.7312,8.4453,1.1282,12.665c3.6779-0.1167,7.3645-0.4902,11.0349-1.1179
		C390.8725,412.2513,388.3694,404.6676,385.8183,397.0999z"/>
	<path fill="#FFFFFF" d="M122.1896,245.3472c-3.7895-11.8871-7.6077-23.5566-11.4587-35.0061
		c9.684-8.0337,19.792-14.3645,30.0801-18.5056c-12.1125-3.933-24.9461-4.7683-37.1678-2.2864
		c-3.7882-10.9023-7.6074-21.5889-11.4603-32.0588c-3.847,13.2544-7.6653,26.7173-11.4603,40.3837
		c-5.5718,2.8982-11.0568,6.3727-16.4612,10.3259c1.1289,0.264,2.2574,0.5192,3.3822,0.7673
		c0.376,2.7927-1.0312,5.5963-0.0913,8.3461c0.8232,2.6208,2.7517,4.6323,4.845,6.3433c0.4123,0.0403,0.8262,0.0636,1.2378,0.1106
		c-0.0645,0.2375-0.1286,0.4775-0.193,0.7153c0.0885,0.0675,0.1766,0.1381,0.265,0.2046c0.6821,0.5586,1.5253,1.0474,1.8636,1.9067
		c1.3856,4.5273,0.3867,9.3019,1.0096,13.9207c0.1182,0.6821-0.0537,1.4878-0.725,1.8368c-1.767,0.7089-3.84,0.8109-5.2955,2.1805
		c-1.0612,0.9932-2.3138,1.9346-3.3066,3.0452c-0.6473,2.4404-1.2944,4.8831-1.9404,7.3342
		c0.1216,1.1694,0.4791,2.286,1.2781,3.2083c0.3204,0.3221,0.6552,0.6256,0.9952,0.9221
		c7.9958-11.3311,16.1599-21.7206,24.5968-30.9242C102.4267,231.8346,112.5241,237.7328,122.1896,245.3472z"/>
	<path fill="#FFFFFF" d="M274.0911,378.5266c-0.2661,0.4365-0.5322,0.8733-0.7983,1.3098c0.3381,0.6222,0.7465,1.2092,1.2073,1.7544
		c2.3821,2.991,4.7759,5.9729,7.1689,8.9552c6.5106,4.6007,13.0212,9.1519,19.5955,13.5068
		c3.9839,8.4282,7.9703,16.7712,11.9709,25.0229c0.4414,0.5258,0.8772,1.056,1.319,1.5814
		c3.918,4.874,7.9542,9.6465,12.0253,14.3894c-1.7839-7.7244-3.5656-15.4736-5.3452-23.2421
		C305.6397,407.2471,289.8681,392.878,274.0911,378.5266z"/>
	<path fill="#FFFFFF" d="M489.7522,504.2066c-1.5682-1.2792-3.2041-2.4766-4.8987-3.5845
		c-1.5334,5.7737-3.0696,11.5256-4.6107,17.2387C483.4475,513.4565,486.6128,508.8909,489.7522,504.2066z"/>
	<path fill="#FFFFFF" d="M465.3811,471.6055c0.5167-1.1282,1.0332-2.2566,1.5488-3.3853c-1.731,0.8215-3.468,1.5908-5.2122,2.2941
		C462.9334,470.9084,464.1551,471.2713,465.3811,471.6055z"/>
	<path fill="#FFFFFF" d="M173.7559,318.1038c-2.165-6.0604-4.3556-12.1106-6.7121-18.0986c-0.9702-2.4094-1.9339-4.822-2.901-7.2332
		c-5.2623-3.3606-10.5969-6.2437-15.9989-8.5474C156.9326,294.3587,165.4294,305.7346,173.7559,318.1038z"/>
	<path fill="#FFFFFF" d="M185.4046,352.667c-1.6462-5.6771-3.4116-11.3149-5.2832-16.9202
		c-1.0527-2.8252-2.0806-5.6597-3.0991-8.4973c-3.4769,7.9399-6.9292,16.0277-10.3535,24.2822
		C172.8877,351.1947,179.1671,351.6137,185.4046,352.667z"/>
	<path fill="#FFFFFF" d="M375.7503,600.1017c10.0051,0.5234,20.2246-0.8392,30.0548-4.1625
		c9.6776,10.7579,19.6913,19.9475,30.0549,27.0657c-3.8524-11.723-7.6725-23.6658-11.4645-35.8257
		c10.324-6.2091,20.3374-14.5288,29.9894-24.4481c-12.132,3.6516-24.9695,4.1593-37.168,1.3889
		c-3.8485-12.734-7.6669-25.682-11.4601-38.84c-3.7875,10.2029-7.6069,20.1959-11.46,29.979
		c-12.7953-6.9443-25.1179-16.8738-37.0717-28.6569c9.7648,16.7217,19.6908,32.2543,29.9894,46.2782
		C383.4257,582.15,379.604,591.223,375.7503,600.1017z"/>
	<path fill="#FFFFFF" d="M126.267,367.9214c0.0582,0.1448,0.1062,0.2947,0.1155,0.4631c0.3551,3.0797,0.8721,6.1376,1.3254,9.2034
		c4.3231-2.5308,8.6951-4.7202,13.1031-6.4847C136.0476,369.5564,131.1723,368.4966,126.267,367.9214z"/>
	<path fill="#FFFFFF" d="M103.6647,368.8125c-3.7952-10.9019-7.6216-21.5869-11.4818-32.0546
		c-3.4202,11.7643-6.8167,23.7026-10.1951,35.7928c0.1721,0.6074,0.3275,1.2224,0.5486,1.8005
		c0.7465,2.0139,1.4393,4.1031,1.2997,6.2891c-0.1772,3.4962-0.0967,7.1375,1.246,10.4243
		c0.8915,0.8594,2.1536,1.1816,3.1096,1.9604c-0.0859,2.2825-0.7895,4.5972-0.1558,6.8689
		c0.7143,2.8627,2.6746,5.1505,4.5812,7.3149c0.1318,0.1466,0.2709,0.2925,0.406,0.439c3.4003,1.282,6.7834,2.7961,10.139,4.5396
		c2.3786-0.832,4.4679-2.4851,6.1524-4.334c2.0484-2.1576,4.0291-4.5317,5.0582-7.3561c-1.2112-3.671-2.4243-7.3281-3.6418-10.9552
		c2.809-2.324,5.6572-4.4858,8.5316-6.5112c0.1541-2.4058,0.0101-4.8595,1.1156-7.0632c0.8539-1.8744,3.0129-2.825,3.6413-4.8335
		c0.3445-1.1089,0.5903-2.2437,0.8827-3.364C117.7888,367.0694,110.6277,367.4005,103.6647,368.8125z"/>
	<path fill="#FFFFFF" d="M272.7753,559.9443c-0.5057,0.8325-1.0118,1.6655-1.5175,2.4983c1.2341,0.8711,2.4648,1.7416,3.697,2.6128
		c-0.5112-0.8783-0.8251-1.8853-1.2283-2.8064C273.4346,561.4761,273.0962,560.7129,272.7753,559.9443z"/>
	<path fill="#FFFFFF" d="M343.7493,605.1499c-0.0566,0.4197-0.134,0.8356-0.2178,1.2504c2.1141,0.8325,4.2333,1.6212,6.361,2.3331
		c-2.0659-2.1893-4.1145-4.441-6.1559-6.7199C343.9649,603.0301,344.0249,604.0696,343.7493,605.1499z"/>
	<path fill="#FFFFFF" d="M320.6214,623.4007c1.0195,2.0618,2.0397,4.1213,3.0624,6.1694c-0.0023-1.3894-0.2522-2.7488-0.9767-4.0009
		C322.2261,624.6287,321.4556,623.9832,320.6214,623.4007z"/>
	<path fill="#FFFFFF" d="M308.3942,593.4956c-0.5594,0.38-1.1138,0.8568-1.7703,1.0464c0.8519,1.7863,1.704,3.5718,2.5568,5.3499
		c0.1893-0.074,0.3815-0.1387,0.5669-0.1933c3.4886-1.066,6.9583-2.1899,10.4205-3.3357c-0.1185-0.5186-0.2373-1.033-0.3558-1.5518
		c0.6223,0.3568,1.2467,0.7002,1.87,1.0503c4.3107-1.4395,8.6068-2.9229,12.8934-4.4335
		c-2.8773-3.4365-5.7393-6.9448-8.5874-10.5298c-0.0217,0.0142-0.0424,0.0327-0.0642,0.0462
		C320.0592,585.1013,314.1515,589.1937,308.3942,593.4956z"/>
	<path fill="#FFFFFF" d="M276.7461,553.4067c10.8962-1.4139,21.7944-2.8596,32.6589-4.5208
		c-0.9543-4.228-1.9092-8.4512-2.8625-12.6875c-8.6627,3.4946-17.3104,7.0313-25.8762,10.7539
		C279.3599,549.1047,278.0533,551.2557,276.7461,553.4067z"/>
	<path fill="#FFFFFF" d="M280.2788,566.4973c-1.1753-0.457-2.4241-0.1967-3.6389-0.251c4.2385,2.9968,8.4749,5.9739,12.717,8.9155
		c-1.2722-1.9159-2.9028-3.5801-4.3359-5.3777C283.8073,568.248,282.2229,566.9324,280.2788,566.4973z"/>
	<path fill="#FFFFFF" d="M498.864,625.7861c-11.95,10.4446-24.3739,18.8462-37.1462,23.996
		c9.8396,3.1675,20.0591,4.3685,30.0559,3.7046c-3.822,14.735-7.6638,29.2844-11.5309,43.642
		c10.3306-14.2205,20.2886-29.9453,30.0881-46.8547c9.0256-2.4341,17.9522-6.1063,26.7574-10.562
		c0.0049-0.0311,0.0105-0.0621,0.0154-0.0931c0.1829-2.356,0.2764-4.7313,0.2585-7.1047
		c-2.8342-5.2272-5.6606-10.4981-8.4686-15.8615c1.1328-2.1482,2.2617-4.3104,3.389-6.4789
		c-0.6616-1.3693-1.3971-2.7015-2.2576-3.9658c-1.4232-2.1106-2.7766-4.3448-4.7852-5.9614
		c-0.2063-0.1703-0.4253-0.3196-0.6392-0.4771c-0.9237,1.0477-1.8446,2.105-2.7732,3.1357
		c-1.0078-1.9811-2.0135-3.9739-3.0178-5.976c-1.2737-0.4153-2.5734-0.7579-3.8601-1.0706c-0.1719-1.7186,0.231-3.405,0.7305-5.0269
		c0.0122-0.0402,0.0226-0.0809,0.0347-0.1211c-1.7959-3.6335-3.5861-7.2983-5.3689-11.0013
		C506.5362,595.2303,502.7108,610.5916,498.864,625.7861z"/>
	<path fill="#FFFFFF" d="M196.6754,463.7505c-3.8492,7.9548-7.6705,16.0769-11.4601,24.3713
		c-11.9302-10.6458-24.3148-19.2858-37.0715-24.726c10.3363,11.9415,20.2712,25.5858,29.9973,40.5621
		c-3.8562,8.7546-7.6807,17.7011-11.4724,26.8416c10.0026-0.5645,20.1638,0.8217,30.0549,3.6702
		c10.23,17.8292,20.1785,36.7347,30.0549,56.4572c-3.8132-16.5916-7.6353-33.0766-11.4722-49.4466
		c10.1486,4.63,20.1031,10.4087,29.9971,16.7637c-12.1934-16.7195-24.4121-32.5627-37.1013-46.8357
		C204.375,495.3793,200.5347,479.4908,196.6754,463.7505z"/>
	<path fill="#FFFFFF" d="M417.2169,743.2913c-3.8485-12.7339-7.6669-25.6819-11.4601-38.84
		c-3.7875,10.203-7.6069,20.1959-11.46,29.9789c-12.7953-6.9443-25.1179-16.8737-37.0717-28.6568
		c9.7675,16.7479,19.6959,32.3062,29.9972,46.3555c-3.7915,9.2762-7.6157,18.3558-11.4722,27.2407
		c10.0063,0.5013,20.2256-0.8845,30.0548-4.2292c9.6776,10.7794,19.6909,19.991,30.0549,27.1324
		c-3.855-11.7311-7.6776-23.6824-11.4722-35.851c10.3271-6.2329,20.3428-14.5762,29.9971-24.5195
		C442.253,745.554,429.4154,746.0616,417.2169,743.2913z"/>
	<path fill="#FFFFFF" d="M312.7246,742.8238c-3.8279-16.9189-7.646-33.9082-11.4602-50.959
		c-3.8091,6.4462-7.6329,12.8385-11.4601,19.1913c-12.4413-17.6853-24.6823-35.5529-37.1681-53.0178
		c10.0862,21.4213,20.0547,43.0817,30.0979,64.7479c-3.8228,6.2819-7.6523,12.5526-11.4763,18.8276
		c10.0054,7.0836,19.9312,14.2039,30.0066,20.878c9.9236,20.9946,19.8596,41.4897,30.0066,61.2452
		c-3.8372-16.4843-7.6606-33.0753-11.4762-49.7646c9.8942,5.6734,19.9161,10.5253,30.0977,13.932
		C337.147,774.3984,324.9048,759.1257,312.7246,742.8238z"/>
	<path fill="#FFFFFF" d="M491.7915,832.6566c-3.8279,14.736-7.6755,29.2858-11.5487,43.6433
		c10.3307-14.1978,20.2887-29.9005,30.0881-46.788c10.1434-2.7581,20.1615-7.0732,30.0216-12.3135
		c-3.8472-6.9918-7.6753-14.1024-11.4763-21.3414c10.1962-19.3344,20.1611-39.5049,30.0978-60.2654
		c-12.2069,16.6529-24.4474,32.3912-37.1681,46.5088c-3.847-7.5858-7.6688-15.3235-11.4599-23.2197
		c-3.8026,15.514-7.6208,30.869-11.4602,46.0577c-11.9568,10.4535-24.3879,18.8621-37.168,24.015
		C471.5631,832.1226,481.7888,833.3231,491.7915,832.6566z"/>
	<path fill="#FFFFFF" d="M226.7783,770.0983c-3.8105-16.5804-7.6301-33.0543-11.4644-49.4133
		c10.1462,4.6521,20.0981,10.4514,29.9893,16.8267c-12.1863-16.7098-24.3979-32.5443-37.0793-46.811
		c-0.7789-3.2581-1.561-6.4846-2.3411-9.731c-0.8806,2.9106-1.7107,5.8351-2.6622,8.7252
		c-2.9989,7.7395-5.3785,15.718-7.2115,23.8195c0.2377,0.0672,0.4771,0.1245,0.7146,0.1934
		C206.9538,731.5145,216.9021,750.3979,226.7783,770.0983z"/>
	<path fill="#FFFFFF" d="M417.2386,922.564c-3.8557-12.7347-7.6814-25.6844-11.4817-38.8449
		c-3.7946,10.2-7.6213,20.189-11.4817,29.9672c-12.7876-6.9438-25.103-16.8685-37.0499-28.6451
		c9.7648,16.7217,19.6908,32.2544,29.9894,46.2783c-3.7891,9.2695-7.6107,18.3426-11.4645,27.2213
		c10.005,0.5234,20.2245-0.8392,30.0548-4.1625c9.6775,10.7579,19.6912,19.9476,30.0549,27.0659
		c-3.8524-11.723-7.6726-23.6659-11.4646-35.8259c10.324-6.2091,20.3375-14.5287,29.9895-24.4481
		C442.2598,924.8196,429.4303,925.329,417.2386,922.564z"/>
	<path fill="#FFFFFF" d="M566.3066,815.1105c10.0659-6.7113,19.9858-13.8444,29.9895-20.9185
		c-3.8224,17.2589-7.6418,34.5219-11.4644,51.7797c10.0254-21.6396,19.9799-43.2548,30.0549-64.6129
		c1.4797-0.991,2.9607-1.9674,4.4425-2.9357c-1.6016-1.6371-3.2513-3.2627-4.3885-5.2629
		c-2.3792-4.0817-5.0859-8.0452-8.679-11.1655c-0.8083-0.6765-1.5909-1.3848-2.3696-2.0979
		c-0.1785,0.8032-0.3571,1.6042-0.5356,2.4075C590.9636,779.9612,578.7607,797.7568,566.3066,815.1105z"/>
	<path fill="#FFFFFF" d="M301.2644,941.693c9.9236,21.0168,19.8597,41.5341,30.0066,61.312
		c-3.834-16.4926-7.6543-33.0917-11.4666-49.7889c9.8912,5.6493,19.9104,10.4771,30.088,13.86
		c-12.7455-13.5062-24.9877-28.7788-37.1678-45.0807c-3.8279-16.919-7.646-33.9084-11.4602-50.9592
		c-3.8091,6.4463-7.6329,12.8386-11.4601,19.1915c-12.4413-17.6852-24.6823-35.5529-37.1681-53.0177
		c10.083,21.4365,20.0484,43.1121,30.0882,64.7935c-3.8195,6.2988-7.6458,12.5864-11.4666,18.8782
		C281.2632,927.9431,291.1891,935.0414,301.2644,941.693z"/>
	<path fill="#FFFFFF" d="M491.7816,1011.8953c-3.8247,14.7454-7.6691,29.3049-11.5388,43.6724
		c10.3306-14.2205,20.2886-29.9453,30.0881-46.8549c10.1425-2.7354,20.161-7.0281,30.0216-12.2468
		c-3.844-7.0081-7.6687-14.1348-11.4666-21.3895c10.1926-19.3512,20.1544-39.5376,30.088-60.3137
		c-12.2069,16.6529-24.4474,32.3912-37.1681,46.5088c-3.847-7.5858-7.6688-15.3235-11.4599-23.2198
		c-3.8026,15.5141-7.6208,30.869-11.4602,46.0578c-11.9568,10.4535-24.3879,18.8621-37.168,24.015
		C471.5589,1011.3144,481.781,1012.5383,491.7816,1011.8953z"/>
	<path fill="#FFFFFF" d="M378.4036,1224.7168c55.1008,41.004,136.4511-15.2177,197.0451-101.1971
		c51.2255-72.7081,105.5034-145.0403,156.9739-161.5566c-0.1067-0.6447-0.2373-1.2806-0.4445-1.8878
		c-0.8324-2.5135-1.7509-5.1451-3.5339-7.1323c-2.4921-1.6326-5.6554-0.8539-8.4481-1.2728
		c-0.0966-2.5886,0.3921-5.5587-1.4338-7.6908c-1.1763-1.6488-4.114-1.2889-4.49-3.5607c-1.6863-5.1183-4.667-9.6511-7.057-14.4363
		c-2.1268-3.6628-3.5499-7.7015-6.015-11.1548c-4.9412-8.2762-10.1506-16.3859-15.1185-24.6406
		c-3.3167-6.1588-7.2991-11.9106-10.7726-17.9741c-28.821,27.288-57.8396,65.1876-86.1011,104.652
		c-42.4331,61.8228-81.5706,119.9286-131.7633,137.1058c-16.4423,5.5909-33.889,3.3837-51.6447-4.5314
		c-9.5743-1.9462-18.6984-5.9503-27.1965-12.2743c-57.1166-42.6418-95.5396-117.1728-142.4103-179.4414
		c-0.6832,1.2001-1.3567,2.4059-2.0096,3.6241c-1.5037,2.9431-3.5447,5.6069-4.7153,8.722
		c-1.9926,5.7251-3.8938,11.4824-5.2902,17.3902c-0.5424,2.2879-0.5531,4.6724-1.1654,6.9603
		c-1.7723,6.0581-3.2654,12.2022-5.3009,18.1904c-2.9431,11.1495-6.0957,22.2722-8.1205,33.6364
		c-0.3765,1.9676-0.3654,3.9717-0.4872,5.968C269.2715,1078.8367,310.7068,1174.1761,378.4036,1224.7168z"/>
	<path fill="#FFFFFF" d="M226.2988,1415.6985c-0.333,5.8752-0.7024,11.7473-1.4077,17.5911
		c-0.3275,4.5542,0.1611,9.1516-0.6659,13.679c-0.7948,12.0679-1.0902,24.1841-0.682,36.2789
		c-0.1021,5.0376,0.6713,10.0323,0.9344,15.0593c0.2523,3.9957,0.2953,8.0721,1.5199,11.9336
		c5.0698,13.6736,8.8831,27.7716,13.6736,41.5421c2.3829,5.5645,4.0858,11.3756,5.9182,17.1432
		c12.2735,17.0715,24.0762,34.8022,35.9277,52.3477h135.304c-13.6962-0.5491-26.656-4.858-38.4175-13.6104
		C317.4009,1562.12,277.7209,1480.203,226.2988,1415.6985z"/>
	<path fill="#FFFFFF" d="M678.583,1477.8337c-0.1665-3.3995-0.7251-6.7616-0.9344-10.1505
		c-0.188-6.8314-1.0311-13.6201-1.2352-20.4462c-0.043-3.4049-0.5049-6.7831-0.5264-10.172
		c0.1558-6.2998-0.7842-12.5513-1.0581-18.835c-0.6565-11.2251-1.087-22.4592-1.6282-33.6912
		c-32.8247,31.5983-65.8794,76.6876-97.752,121.9269c-45.7584,64.9286-103.351,112.8739-152.54,114.8075h161.6284
		c31.4485-44.1997,63.9039-87.0441,96.037-115.96c-0.0568-2.7146-0.0829-5.4296-0.3208-8.1345
		C680.0599,1490.6965,678.9536,1484.2947,678.583,1477.8337z"/>
	<path fill="#FFFFFF" d="M378.4036,1480.0145c55.1008,41.004,136.4511-15.2177,197.0451-101.1971
		c29.9178-42.4647,60.8772-84.797,91.7103-115.9647c-0.1151-2.2512-0.2069-4.5029-0.225-6.7573
		c2.1604,0.1095,4.3293,0.4137,6.4966,0.5739c17.9113-17.2083,35.7527-30.3857,53.2957-37.3638
		c2.2139-4.5547,3.783-9.4076,5.1713-14.2689c0.8378-2.8142,0.8807-6.0581,3.0183-8.2977
		c4.2106-4.8389,7.6156-10.3815,9.8712-16.3966c3.4641-8.3191,4.3287-17.4116,4.8336-26.3215
		c0.6552-6.418,0.9076-12.8735,0.7357-19.3182c-0.1288-3.3998,0.2524-6.7993,0.9829-10.1077
		c1.1064-3.9099,4.9839-6.4233,5.6392-10.5104c0.5049-2.4382,1.536-4.7314,1.9978-7.1752c0.6445-3.2815,0.6768-6.6436,1.2837-9.9304
		c0.6348-3.4802,0.4087-7.0221-0.0488-10.5077c-59.4004-6.6705-124.214,78.7563-184.7625,164.6974
		c-60.594,85.9794-141.9443,142.201-197.0451,101.197c-69.7419-52.0675-111.615-151.6768-175.0269-218.4546
		c-0.6409,5.2054-1.3416,10.4081-1.6653,15.652c-0.6338,20.516-1.2515,41.0641-0.043,61.5747
		c0.9183,12.5082,3.5232,24.834,4.1837,37.369c0.949,6.1798,1.7753,12.3799,2.6595,18.5709
		C269.0927,1333.7188,310.5598,1429.3641,378.4036,1480.0145z"/>
	<path fill="#FFFFFF" d="M378.4036,1097.1648c8.4982,6.324,17.6222,10.3281,27.1965,12.2743
		c-35.9944-16.0458-73.2581-55.5631-105.999-101.2238c-22.1072-30.8425-42.6832-62.6012-63.5086-90.6636
		c-0.0327,0.0574-0.0665,0.1143-0.0992,0.1717C282.864,979.992,321.287,1054.5229,378.4036,1097.1648z"/>
	
		<linearGradient id="SVGID_12_" gradientUnits="userSpaceOnUse" x1="-15.6864" y1="755.5534" x2="3137.0339" y2="755.5534" gradientTransform="matrix(1 0 0 -1 0 1769.0488)">
		<stop  offset="0" style="stop-color:#550210"/>
		<stop  offset="0.1405" style="stop-color:#C70016"/>
		<stop  offset="0.1886" style="stop-color:#C70016"/>
		<stop  offset="0.3056" style="stop-color:#7B0922"/>
		<stop  offset="0.3452" style="stop-color:#620010"/>
		<stop  offset="0.4529" style="stop-color:#890017"/>
		<stop  offset="0.6323" style="stop-color:#D90522"/>
		<stop  offset="0.7074" style="stop-color:#A6061D"/>
		<stop  offset="0.7891" style="stop-color:#740818"/>
		<stop  offset="0.8295" style="stop-color:#610816"/>
		<stop  offset="0.8763" style="stop-color:#550110"/>
		<stop  offset="0.9385" style="stop-color:#8F0019"/>
		<stop  offset="1" style="stop-color:#441A20"/>
	</linearGradient>
	<path fill="url(#SVGID_12_)" d="M378.4036,1097.1648c8.4982,6.324,17.6222,10.3281,27.1965,12.2743
		c-35.9944-16.0458-73.2581-55.5631-105.999-101.2238c-22.1072-30.8425-42.6832-62.6012-63.5086-90.6636
		c-0.0327,0.0574-0.0665,0.1143-0.0992,0.1717C282.864,979.992,321.287,1054.5229,378.4036,1097.1648z"/>
	<path fill="#FFFFFF" d="M614.8884,939.7478c-8.8337,12.3239-17.4221,24.7938-25.8804,37.1169
		c28.2615-39.4644,57.28-77.364,86.1011-104.652c-0.0249-0.0437-0.0511-0.0866-0.0762-0.1303
		c-0.2617-0.4916-0.3911-1.0144-0.4453-1.5492C653.9285,889.4073,633.6641,913.5643,614.8884,939.7478z"/>
	
		<linearGradient id="SVGID_13_" gradientUnits="userSpaceOnUse" x1="-15.6864" y1="845.3498" x2="3137.0339" y2="845.3498" gradientTransform="matrix(1 0 0 -1 0 1769.0488)">
		<stop  offset="0" style="stop-color:#550210"/>
		<stop  offset="0.1405" style="stop-color:#C70016"/>
		<stop  offset="0.1886" style="stop-color:#C70016"/>
		<stop  offset="0.3056" style="stop-color:#7B0922"/>
		<stop  offset="0.3452" style="stop-color:#620010"/>
		<stop  offset="0.4529" style="stop-color:#890017"/>
		<stop  offset="0.6323" style="stop-color:#D90522"/>
		<stop  offset="0.7074" style="stop-color:#A6061D"/>
		<stop  offset="0.7891" style="stop-color:#740818"/>
		<stop  offset="0.8295" style="stop-color:#610816"/>
		<stop  offset="0.8763" style="stop-color:#550110"/>
		<stop  offset="0.9385" style="stop-color:#8F0019"/>
		<stop  offset="1" style="stop-color:#441A20"/>
	</linearGradient>
	<path fill="url(#SVGID_13_)" d="M614.8884,939.7478c-8.8337,12.3239-17.4221,24.7938-25.8804,37.1169
		c28.2615-39.4644,57.28-77.364,86.1011-104.652c-0.0249-0.0437-0.0511-0.0866-0.0762-0.1303
		c-0.2617-0.4916-0.3911-1.0144-0.4453-1.5492C653.9285,889.4073,633.6641,913.5643,614.8884,939.7478z"/>
	<path fill="#FFFFFF" d="M405.6001,1109.4391c17.7556,7.915,35.2024,10.1223,51.6447,4.5314
		c50.1926-17.1771,89.3302-75.283,131.7633-137.1058c-4.5404,6.3403-9.062,12.7195-13.5593,19.103
		C524.2,1068.6866,458.1053,1120.1118,405.6001,1109.4391z"/>
	
		<linearGradient id="SVGID_14_" gradientUnits="userSpaceOnUse" x1="-15.6864" y1="722.076" x2="3137.0339" y2="722.076" gradientTransform="matrix(1 0 0 -1 0 1769.0488)">
		<stop  offset="0" style="stop-color:#550210"/>
		<stop  offset="0.1405" style="stop-color:#C70016"/>
		<stop  offset="0.1886" style="stop-color:#C70016"/>
		<stop  offset="0.3056" style="stop-color:#7B0922"/>
		<stop  offset="0.3452" style="stop-color:#620010"/>
		<stop  offset="0.4529" style="stop-color:#890017"/>
		<stop  offset="0.6323" style="stop-color:#D90522"/>
		<stop  offset="0.7074" style="stop-color:#A6061D"/>
		<stop  offset="0.7891" style="stop-color:#740818"/>
		<stop  offset="0.8295" style="stop-color:#610816"/>
		<stop  offset="0.8763" style="stop-color:#550110"/>
		<stop  offset="0.9385" style="stop-color:#8F0019"/>
		<stop  offset="1" style="stop-color:#441A20"/>
	</linearGradient>
	<path fill="url(#SVGID_14_)" d="M405.6001,1109.4391c17.7556,7.915,35.2024,10.1223,51.6447,4.5314
		c50.1926-17.1771,89.3302-75.283,131.7633-137.1058c-4.5404,6.3403-9.062,12.7195-13.5593,19.103
		C524.2,1068.6866,458.1053,1120.1118,405.6001,1109.4391z"/>
	<path fill="#FFFFFF" d="M378.4036,1352.3655c55.1008,41.004,136.4511-15.2177,197.0451-101.197
		c60.5485-85.941,125.3621-171.3679,184.7625-164.6974c-0.0806-0.6132-0.1656-1.2251-0.2573-1.8341
		c-0.5479-2.6584,0.8647-5.1398,1.187-7.7284c1.0095-6.2085,1.246-12.6962-0.4189-18.808
		c-0.6875-3.0989-1.5898-6.1495-2.7122-9.1086c-1.8905-4.984-3.7542-9.9841-6.1978-14.7209
		c-1.8154-3.491-3.3137-7.2129-5.9185-10.2097c-3.3889-3.7165-3.9153-8.9797-4.6833-13.7167
		c-1.1331-3.8723,0.1343-7.9002-0.4349-11.8369c-0.0859-3.4265-2.2987-6.5576-1.5897-10.0217
		c0.6875-5.1666,0.5693-10.7091-1.8744-15.4299c-0.9237-1.8905-1.8153-3.8079-3.1096-5.4673
		c-1.3529-1.5839-1.451-3.6472-1.7789-5.6258c-51.4705,16.5163-105.7484,88.8485-156.9739,161.5566
		c-60.594,85.9795-141.9443,142.2012-197.0451,101.1971c-67.6968-50.5406-109.1321-145.8801-169.4994-212.502
		c-0.0328,0.5375-0.0731,1.0745-0.1357,1.61c-1.7401,14.0712-2.6317,28.2659-2.1215,42.4551
		c-0.1289,8.4105-0.3223,16.8424,0.3223,25.2476c0.1182,4.9624,1.1494,9.8712,1.1602,14.8391
		c-0.6768,5.5693-1.5684,11.1334-1.7188,16.7618c-0.5262,5.6982-1.5735,11.332-2.5779,16.9658
		c-0.1423,1.2729-0.2996,2.5448-0.4561,3.8167C266.7886,1200.6887,308.6617,1300.298,378.4036,1352.3655z"/>
	
		<linearGradient id="SVGID_15_" gradientUnits="userSpaceOnUse" x1="-15.6864" y1="605.0424" x2="3137.0339" y2="605.0424" gradientTransform="matrix(1 0 0 -1 0 1769.0488)">
		<stop  offset="0" style="stop-color:#550210"/>
		<stop  offset="0.1405" style="stop-color:#C70016"/>
		<stop  offset="0.1886" style="stop-color:#C70016"/>
		<stop  offset="0.3056" style="stop-color:#7B0922"/>
		<stop  offset="0.3452" style="stop-color:#620010"/>
		<stop  offset="0.4529" style="stop-color:#890017"/>
		<stop  offset="0.6323" style="stop-color:#D90522"/>
		<stop  offset="0.7074" style="stop-color:#A6061D"/>
		<stop  offset="0.7891" style="stop-color:#740818"/>
		<stop  offset="0.8295" style="stop-color:#610816"/>
		<stop  offset="0.8763" style="stop-color:#550110"/>
		<stop  offset="0.9385" style="stop-color:#8F0019"/>
		<stop  offset="1" style="stop-color:#441A20"/>
	</linearGradient>
	<path fill="url(#SVGID_15_)" d="M378.4036,1352.3655c55.1008,41.004,136.4511-15.2177,197.0451-101.197
		c60.5485-85.941,125.3621-171.3679,184.7625-164.6974c-0.0806-0.6132-0.1656-1.2251-0.2573-1.8341
		c-0.5479-2.6584,0.8647-5.1398,1.187-7.7284c1.0095-6.2085,1.246-12.6962-0.4189-18.808
		c-0.6875-3.0989-1.5898-6.1495-2.7122-9.1086c-1.8905-4.984-3.7542-9.9841-6.1978-14.7209
		c-1.8154-3.491-3.3137-7.2129-5.9185-10.2097c-3.3889-3.7165-3.9153-8.9797-4.6833-13.7167
		c-1.1331-3.8723,0.1343-7.9002-0.4349-11.8369c-0.0859-3.4265-2.2987-6.5576-1.5897-10.0217
		c0.6875-5.1666,0.5693-10.7091-1.8744-15.4299c-0.9237-1.8905-1.8153-3.8079-3.1096-5.4673
		c-1.3529-1.5839-1.451-3.6472-1.7789-5.6258c-51.4705,16.5163-105.7484,88.8485-156.9739,161.5566
		c-60.594,85.9795-141.9443,142.2012-197.0451,101.1971c-67.6968-50.5406-109.1321-145.8801-169.4994-212.502
		c-0.0328,0.5375-0.0731,1.0745-0.1357,1.61c-1.7401,14.0712-2.6317,28.2659-2.1215,42.4551
		c-0.1289,8.4105-0.3223,16.8424,0.3223,25.2476c0.1182,4.9624,1.1494,9.8712,1.1602,14.8391
		c-0.6768,5.5693-1.5684,11.1334-1.7188,16.7618c-0.5262,5.6982-1.5735,11.332-2.5779,16.9658
		c-0.1423,1.2729-0.2996,2.5448-0.4561,3.8167C266.7886,1200.6887,308.6617,1300.298,378.4036,1352.3655z"/>
	<path fill="#FFFFFF" d="M575.4487,1506.4658c31.8726-45.2393,64.9272-90.3286,97.752-121.9269
		c-0.1892-3.9279-0.3911-7.8553-0.6221-11.7821c-0.3867-4.2911-0.5264-8.5876-0.5479-12.8843
		c-1.0472-19.9413-2.0623-39.8771-3.6735-59.7861c-0.1289-7.3363-0.4994-14.6674-0.5264-21.9983
		c-0.0223-5.0892-0.4126-10.1608-0.6719-15.2355c-30.8331,31.1677-61.7925,73.5-91.7103,115.9647
		c-60.594,85.9795-141.9443,142.2012-197.0451,101.1971c-67.8438-50.6504-109.3109-146.2958-169.8919-212.937
		c0.9727,6.8081,2.0156,13.6051,3.3771,20.3502c0.9559,4.1409,1.1923,8.4481,2.5671,12.4922
		c1.955,5.2955,3.1902,10.8112,4.7477,16.2302c2.0409,8.4211,3.4587,16.9766,5.6123,25.371
		c0.7842,4.2858,2.5564,8.4158,2.4061,12.8412c-0.0752,4.9948-0.188,10.0001,0.188,14.9949
		c-0.1343,8.2279,1.4716,16.4396,0.494,24.6675c-0.8417,7.1991-1.1951,14.439-1.6052,21.6738
		c51.422,64.5045,91.1021,146.4215,152.1048,191.9645c11.7615,8.7523,24.7213,13.0613,38.4175,13.6104h6.0876
		C472.0977,1619.3397,529.6903,1571.3944,575.4487,1506.4658z"/>
	
		<linearGradient id="SVGID_16_" gradientUnits="userSpaceOnUse" x1="-15.6864" y1="326.9858" x2="3137.0339" y2="326.9858" gradientTransform="matrix(1 0 0 -1 0 1769.0488)">
		<stop  offset="0" style="stop-color:#550210"/>
		<stop  offset="0.1405" style="stop-color:#C70016"/>
		<stop  offset="0.1886" style="stop-color:#C70016"/>
		<stop  offset="0.3056" style="stop-color:#7B0922"/>
		<stop  offset="0.3452" style="stop-color:#620010"/>
		<stop  offset="0.4529" style="stop-color:#890017"/>
		<stop  offset="0.6323" style="stop-color:#D90522"/>
		<stop  offset="0.7074" style="stop-color:#A6061D"/>
		<stop  offset="0.7891" style="stop-color:#740818"/>
		<stop  offset="0.8295" style="stop-color:#610816"/>
		<stop  offset="0.8763" style="stop-color:#550110"/>
		<stop  offset="0.9385" style="stop-color:#8F0019"/>
		<stop  offset="1" style="stop-color:#441A20"/>
	</linearGradient>
	<path fill="url(#SVGID_16_)" d="M575.4487,1506.4658c31.8726-45.2393,64.9272-90.3286,97.752-121.9269
		c-0.1892-3.9279-0.3911-7.8553-0.6221-11.7821c-0.3867-4.2911-0.5264-8.5876-0.5479-12.8843
		c-1.0472-19.9413-2.0623-39.8771-3.6735-59.7861c-0.1289-7.3363-0.4994-14.6674-0.5264-21.9983
		c-0.0223-5.0892-0.4126-10.1608-0.6719-15.2355c-30.8331,31.1677-61.7925,73.5-91.7103,115.9647
		c-60.594,85.9795-141.9443,142.2012-197.0451,101.1971c-67.8438-50.6504-109.3109-146.2958-169.8919-212.937
		c0.9727,6.8081,2.0156,13.6051,3.3771,20.3502c0.9559,4.1409,1.1923,8.4481,2.5671,12.4922
		c1.955,5.2955,3.1902,10.8112,4.7477,16.2302c2.0409,8.4211,3.4587,16.9766,5.6123,25.371
		c0.7842,4.2858,2.5564,8.4158,2.4061,12.8412c-0.0752,4.9948-0.188,10.0001,0.188,14.9949
		c-0.1343,8.2279,1.4716,16.4396,0.494,24.6675c-0.8417,7.1991-1.1951,14.439-1.6052,21.6738
		c51.422,64.5045,91.1021,146.4215,152.1048,191.9645c11.7615,8.7523,24.7213,13.0613,38.4175,13.6104h6.0876
		C472.0977,1619.3397,529.6903,1571.3944,575.4487,1506.4658z"/>
	<path fill="#FFFFFF" d="M679.668,1256.4229c3.8292-0.8163,7.3738-2.61,11.2407-3.3029c3.158-0.5747,6.2891-1.5574,8.9905-3.3352
		c2.6423-1.5735,4.6188-3.9797,7.0303-5.8486c3.8776-3.0613,7.5833-6.3804,10.7251-10.1989
		c2.7766-3.7434,5.462-7.5726,7.6478-11.692c0.5077-0.8976,0.9744-1.8148,1.424-2.7399
		c-17.543,6.978-35.3844,20.1555-53.2957,37.3638C675.5142,1256.8231,677.5962,1256.8441,679.668,1256.4229z"/>
	
		<linearGradient id="SVGID_17_" gradientUnits="userSpaceOnUse" x1="-15.6864" y1="531.0109" x2="3137.0339" y2="531.0109" gradientTransform="matrix(1 0 0 -1 0 1769.0488)">
		<stop  offset="0" style="stop-color:#550210"/>
		<stop  offset="0.1405" style="stop-color:#C70016"/>
		<stop  offset="0.1886" style="stop-color:#C70016"/>
		<stop  offset="0.3056" style="stop-color:#7B0922"/>
		<stop  offset="0.3452" style="stop-color:#620010"/>
		<stop  offset="0.4529" style="stop-color:#890017"/>
		<stop  offset="0.6323" style="stop-color:#D90522"/>
		<stop  offset="0.7074" style="stop-color:#A6061D"/>
		<stop  offset="0.7891" style="stop-color:#740818"/>
		<stop  offset="0.8295" style="stop-color:#610816"/>
		<stop  offset="0.8763" style="stop-color:#550110"/>
		<stop  offset="0.9385" style="stop-color:#8F0019"/>
		<stop  offset="1" style="stop-color:#441A20"/>
	</linearGradient>
	<path fill="url(#SVGID_17_)" d="M679.668,1256.4229c3.8292-0.8163,7.3738-2.61,11.2407-3.3029
		c3.158-0.5747,6.2891-1.5574,8.9905-3.3352c2.6423-1.5735,4.6188-3.9797,7.0303-5.8486
		c3.8776-3.0613,7.5833-6.3804,10.7251-10.1989c2.7766-3.7434,5.462-7.5726,7.6478-11.692c0.5077-0.8976,0.9744-1.8148,1.424-2.7399
		c-17.543,6.978-35.3844,20.1555-53.2957,37.3638C675.5142,1256.8231,677.5962,1256.8441,679.668,1256.4229z"/>
	<path fill="#FFFFFF" d="M248.9302,1578.5175c0.8701,2.0516,2.3632,3.738,3.448,5.6768c1.5521,2.7069,2.4919,5.7037,3.8186,8.5287
		c1.6863,3.1902,0.4082,6.853,0.5479,10.274c0.1772,6.085-0.1934,12.1807-0.0645,18.2764h24.8369
		c-11.8516-17.5454-23.6543-35.2761-35.9277-52.3477C246.615,1572.1536,247.6795,1575.3684,248.9302,1578.5175z"/>
	
		<linearGradient id="SVGID_18_" gradientUnits="userSpaceOnUse" x1="-15.6864" y1="173.9493" x2="3137.0339" y2="173.9493" gradientTransform="matrix(1 0 0 -1 0 1769.0488)">
		<stop  offset="0" style="stop-color:#550210"/>
		<stop  offset="0.1405" style="stop-color:#C70016"/>
		<stop  offset="0.1886" style="stop-color:#C70016"/>
		<stop  offset="0.3056" style="stop-color:#7B0922"/>
		<stop  offset="0.3452" style="stop-color:#620010"/>
		<stop  offset="0.4529" style="stop-color:#890017"/>
		<stop  offset="0.6323" style="stop-color:#D90522"/>
		<stop  offset="0.7074" style="stop-color:#A6061D"/>
		<stop  offset="0.7891" style="stop-color:#740818"/>
		<stop  offset="0.8295" style="stop-color:#610816"/>
		<stop  offset="0.8763" style="stop-color:#550110"/>
		<stop  offset="0.9385" style="stop-color:#8F0019"/>
		<stop  offset="1" style="stop-color:#441A20"/>
	</linearGradient>
	<path fill="url(#SVGID_18_)" d="M248.9302,1578.5175c0.8701,2.0516,2.3632,3.738,3.448,5.6768
		c1.5521,2.7069,2.4919,5.7037,3.8186,8.5287c1.6863,3.1902,0.4082,6.853,0.5479,10.274c0.1772,6.085-0.1934,12.1807-0.0645,18.2764
		h24.8369c-11.8516-17.5454-23.6543-35.2761-35.9277-52.3477C246.615,1572.1536,247.6795,1575.3684,248.9302,1578.5175z"/>
	<path fill="#FFFFFF" d="M584.5371,1621.2733h98.2511c-0.5101-6.4717-1.5575-12.8788-1.9227-19.3558
		c-0.5101-7.3148-1.5627-14.592-1.5735-21.9285c1.7239-2.712,5.1182-3.6359,7.1268-6.0472
		c0.3008-1.9764-0.5209-3.9207-0.6981-5.8649c-0.8486-5.1504-0.9023-10.3813-1.563-15.5426
		c-1.4393-6.5254-0.8539-13.2548-1.5466-19.8607c-0.3438-6.6543-1.5522-13.228-1.6113-19.8929
		c-0.2955-2.4832-0.3735-4.9751-0.4257-7.4673C648.441,1534.2292,615.9856,1577.0736,584.5371,1621.2733z"/>
	
		<linearGradient id="SVGID_19_" gradientUnits="userSpaceOnUse" x1="-15.6864" y1="205.7554" x2="3137.0339" y2="205.7554" gradientTransform="matrix(1 0 0 -1 0 1769.0488)">
		<stop  offset="0" style="stop-color:#550210"/>
		<stop  offset="0.1405" style="stop-color:#C70016"/>
		<stop  offset="0.1886" style="stop-color:#C70016"/>
		<stop  offset="0.3056" style="stop-color:#7B0922"/>
		<stop  offset="0.3452" style="stop-color:#620010"/>
		<stop  offset="0.4529" style="stop-color:#890017"/>
		<stop  offset="0.6323" style="stop-color:#D90522"/>
		<stop  offset="0.7074" style="stop-color:#A6061D"/>
		<stop  offset="0.7891" style="stop-color:#740818"/>
		<stop  offset="0.8295" style="stop-color:#610816"/>
		<stop  offset="0.8763" style="stop-color:#550110"/>
		<stop  offset="0.9385" style="stop-color:#8F0019"/>
		<stop  offset="1" style="stop-color:#441A20"/>
	</linearGradient>
	<path fill="url(#SVGID_19_)" d="M584.5371,1621.2733h98.2511c-0.5101-6.4717-1.5575-12.8788-1.9227-19.3558
		c-0.5101-7.3148-1.5627-14.592-1.5735-21.9285c1.7239-2.712,5.1182-3.6359,7.1268-6.0472
		c0.3008-1.9764-0.5209-3.9207-0.6981-5.8649c-0.8486-5.1504-0.9023-10.3813-1.563-15.5426
		c-1.4393-6.5254-0.8539-13.2548-1.5466-19.8607c-0.3438-6.6543-1.5522-13.228-1.6113-19.8929
		c-0.2955-2.4832-0.3735-4.9751-0.4257-7.4673C648.441,1534.2292,615.9856,1577.0736,584.5371,1621.2733z"/>
</g>
</svg>
