<?xml version="1.0" encoding="utf-8"?>
<svg version="1.1" id="Layer_1" xmlns="http://www.w3.org/2000/svg" xmlns:xlink="http://www.w3.org/1999/xlink" x="0px" y="0px"
	 viewBox="0 0 1619.8002 1694.7081" enable-background="new 0 0 1619.8002 1694.7081" xml:space="preserve">
<g>
	<path fill="none" d="M45.3586,1527.8412v-204.5751v-67.1133h-0.0039v-189.9091h0.0039v-67.272v-54.7839
		c-0.0643,1.2565-0.0976,2.5211-0.0976,3.7936v596.5084c0,1.2726,0.0333,2.5371,0.0976,3.7936V1527.8412z"/>
	<polygon fill="#002D62" points="696.9954,977.3967 696.9954,977.3014 695.4077,976.3329 	"/>
	<polygon fill="#002D62" points="45.3586,1527.8412 366.0793,1336.6138 366.0793,1323.2661 45.3586,1323.2661 	"/>
	<path fill="#002D62" d="M1538.381,998.9718c-10.2528-17.1138-21.6288-37.0834-12.408-56.8353
		c9.0513-19.3887,25.1521-35.1215,36.9095-52.8252c8.0507-12.1224,11.2004-24.8533,11.0006-37.6867l-245.731,147.3472H1538.381z"/>
	<path fill="#002D62" d="M366.0793,998.9718V985.535L181.7877,874.9192h-63.4645c-39.0787,0-70.9908,30.6808-72.9646,69.2687
		v54.7839H366.0793z"/>
	<path fill="#002D62" d="M1464.5598,1406.333c8.9181-13.5679,21.5291-25.6776,37.1663-41.2284
		c12.1246-12.0575,25.1396-25.8657,32.616-41.8385h-209.2697L1464.5598,1406.333z"/>
	<polygon fill="#FFFFFF" points="244.3586,1617.5522 366.0793,1544.1486 366.0793,1502.6769 174.6617,1617.5522 	"/>
	<path fill="#FFFFFF" d="M366.0793,947.9815c0-3.0023-0.2024-5.9558-0.5542-8.8632l-107.1942-64.1991h-76.5432L366.0793,985.535
		V947.9815z"/>
	<path fill="#FFFFFF" d="M45.3586,1548.2834c1.3124,25.6572,15.8709,47.8019,36.9609,59.7734l283.7598-169.9498v-101.4933
		L45.3586,1527.8412V1548.2834z"/>
	<rect x="45.3586" y="1256.1528" fill="#FFFFFF" width="320.7207" height="67.1134"/>
	<path fill="#FFFFFF" d="M765.2746,1256.1534v374.4244c-22.2189-2.6023-44.4589-7.0271-66.562-11.6838v-275.3398l-267.6703,161.4114
		c0.0105-13.7592,0.0105-27.5183,0.0211-41.288l226.5826-135.979H550.4283l-119.3543,71.4819
		c0.0105-22.4402,0.021-44.8909,0.021-67.3311c0.0106-25.2319,0-50.4641,0.0106-75.696H765.2746z"/>
	<rect x="45.3586" y="998.9718" fill="#FFFFFF" width="320.7207" height="67.272"/>
	<path fill="#FFFFFF" d="M1540.3983,1301.4552c-0.6531,7.6907-2.8445,14.9496-6.0577,21.808h-209.2731l139.4873,83.0708
		c-7.0692,10.7566-11.8101,22.4402-13.896,37.4741l-201.3086-120.271h-120.4814l317.3441,190.6151
		c-1.6331,5.51-3.9718,10.9462-7.343,16.3403c-10.1246,16.2136-23.7888,30.9105-38.1168,44.1427l-382.7683-230.8282v302.1207
		c-20.2593-0.8217-40.5082-1.8121-60.757-2.9078l-0.727-386.8665h573.984
		C1536.532,1270.7659,1541.7047,1286.1685,1540.3983,1301.4552z"/>
	<polygon fill="#E31937" points="45.3546,1066.2438 45.3546,1256.1528 45.3586,1256.1528 366.0793,1256.1528 366.0793,1066.2438 
		45.3586,1066.2438 	"/>
	<path fill="#E31937" d="M1509.4247,1172.8718c-7.5328,20.5544,5.0254,45.1438,12.7371,63.7703
		c2.6024,6.2791,5.5521,12.8109,8.323,19.5114h-573.984l0.727,386.8665c-57.3542-3.1184-114.6662-7.1007-172.0941-10.6195
		c-6.6162-0.4109-13.2324-1.043-19.8591-1.8225v-374.4244h-334.169c0-63.3065,0.0105-126.6027,0.0105-189.9093h334.1585V482.3044
		c9.8505-8.8391,20.1435-17.2252,30.4365-25.4322c39.3704-31.3741,69.3538-65.993,88.9706-112.8119
		c26.8439-64.0651,35.7673-132.5551,43.6687-201.0451c2.6234-22.7984-4.1508-73.7365,17.2042-88.4016
		c18.0259-12.379,43.0577-6.0789,62.527-1.8542c0.2844,0.0632,0.474,0.1159,0.59,0.158
		c92.3419,24.01,137.3487,104.036,143.6594,193.7125H956.5007l0.7375,428.4599h-0.7375v391.1544h617.4738
		c3.74,21.8713-11.7891,39.4337-26.1066,55.9003C1534.5934,1137.41,1516.5465,1153.4448,1509.4247,1172.8718z"/>
	<path fill="#002D62" d="M1017.9874,675.0886h-0.508v303.2447l453.8346-273.6901c-11.3363-5.554-23.8661-9.574-38.0417-11.8129
		c-104.6259-16.5249-216.012-11.2701-321.5635-9.0527c-21.3826,0.4492-42.926,2.489-64.3119,2.1561
		c-7.5963-0.1182-11.4446-3.9713-13.4656-9.3499h-15.9439V675.0886z"/>
	<g>
		<path fill="#002D62" d="M698.7126,580.4091v397.9286l-1.7173-1.0325l-1.5908-0.9693l-163.6342-98.6841
			c16.0874-15.5184,29.8571-33.9236,40.9507-49.7161c33.5549-47.7881,60.0196-99.0739,84.0822-151.6345
			c0.1792-0.4004,0.3688-0.8113,0.5479-1.2116C671.6475,643.8104,685.101,612.0992,698.7126,580.4091z"/>
	</g>
	<path fill="#002D62" d="M1017.9874,1645.9249c13.8065,0.5605,27.6203,1.0426,41.4437,1.4291h149.2593
		c64.6021-3.7922,127.4344-17.2343,178.4358-60.662c4.5487-3.873,9.1187-7.8936,13.624-12.054l-382.7628-230.8287V1645.9249z"/>
	<path fill="#002D62" d="M293.0169,1617.5522c40.3512,0,73.0624-32.7112,73.0624-73.0624v-0.3413l-121.7207,73.4037H293.0169z"/>
	<path fill="#002D62" d="M431.0464,1504.9701c-0.0001,0.097,0,0.194-0.0001,0.2911c-0.0037,9.0009-6.2954,58.6127,2.8446,63.2377
		c16.4808,8.3392,42.6452,8.4617,60.7826,11.7855c52.1406,9.5546,104.3112,18.9784,156.4016,28.8022
		c15.7653,2.9731,31.665,6.4462,47.6348,9.8097v-275.3411L431.0464,1504.9701z"/>
	<path fill="#E31937" d="M293.017,874.9192h-34.6862l107.1942,64.1991C361.1479,902.9503,330.3659,874.9192,293.017,874.9192z"/>
	<path fill="#E31937" d="M586.2071,999.1242l-146.3905-88.1401c-5.1646,1.1132-8.6963,4.3015-8.6963,12.158
		c-0.0001,18.4205-0.0002,36.8409-0.0002,55.2612l34.5979,20.7209H586.2071z"/>
	<path fill="#E31937" d="M1128.8662,1323.536l317.3442,190.618c4.7096-15.9261,3.3917-32.4142,3.2441-50.0128
		c-0.0625-7.4547,0.3495-14.1718,1.203-20.3308l-201.3022-120.2744H1128.8662z"/>
	<path fill="#E31937" d="M550.4247,1327.6986l-119.3471,71.4795c-0.0057,21.5009-0.0114,43.0018-0.019,64.5027l226.5878-135.9822
		H550.4247z"/>
	<path fill="#E31937" d="M118.3232,1617.5522h56.3385l191.4176-114.8754v-64.5698L82.3195,1608.0569
		C92.9485,1614.0902,105.228,1617.5522,118.3232,1617.5522z"/>
	<path fill="#E31937" d="M1162.9896,999.4211l378.4664-226.8081c-2.144-3.1209-4.2926-6.1637-6.41-9.113
		c-9.4598-13.1761-19.1987-24.9734-29.8926-35.0493l-456.7964,272.4739L1162.9896,999.4211z"/>
	<path fill="#FFFFFF" d="M710.5543,552.9857c-3.9718,9.1235-7.912,18.2681-11.8416,27.4233v94.6807v303.248l-1.7173-1.0325V977.4
		l-1.5908-1.0641l-163.6342-98.6841c-18.9424,18.2787-41.0981,32.5541-65.9193,33.8288
		c-8.4598,0.4426-18.8371-2.0438-26.0327-0.4951l146.3879,88.1382H465.7141l-34.598-20.7229v87.8433h334.1585V675.0897V482.3044
		C742.8555,502.4163,722.7858,524.8986,710.5543,552.9857z"/>
	<path fill="#FFFFFF" d="M1571.5935,1057.7106c-7.5959-19.4904-20.1857-36.9368-30.8474-54.794
		c-0.769-1.2959-1.5698-2.6128-2.3599-3.9402h-210.2319l245.7252-147.3466c-0.4213-27.5393-16.2875-55.5421-32.4276-79.0148
		l-378.4595,226.8039l-114.6344,1.5065l456.7998-272.4744c-10.2086-9.6187-21.2919-17.6571-33.8394-23.8097l-453.8394,273.6964
		v-303.248h0.5057V342.638l105.2582,69.5224c10.1665-25.8747,18.521-52.2024,23.7887-79.7732l-18.1628-11.9576h20.2383
		c2.9604-19.0057,4.4037-38.633,3.9191-59.1451c-0.1158-4.9095-0.3477-9.7873-0.6952-14.6546H956.5007l0.7375,428.4599h-0.7375
		v391.1544h617.4738C1573.5004,1063.4734,1572.7312,1060.6289,1571.5935,1057.7106z"/>
	<path fill="#002D62" d="M1017.9874,675.0886h15.444c-1.5442-5.1003-1.738-11.2833-1.9935-16.92
		c-1.976-43.5919,18.1077-87.9023,36.5187-126.2975c19.551-40.7704,39.5725-79.7014,55.2885-119.7117l-105.2576-69.5213V675.0886z"
		/>
	<path fill="#002D62" d="M1017.9874,676.5839h15.9439c-0.1824-0.4855-0.3458-0.9866-0.4999-1.4953h-15.444V676.5839z"/>
	<path fill="#E31937" d="M1147.0337,332.3858c0.7559-3.958,1.4519-7.9402,2.0764-11.9517h-20.2439L1147.0337,332.3858z"/>
</g>
</svg>
