<?xml version="1.0" ?><svg viewBox="0 0 64 64" xmlns="http://www.w3.org/2000/svg"><defs><style>.cls-1{fill:#8bc4ff;}.cls-2{fill:#2e58ff;}</style></defs><title/><g id="Time"><circle class="cls-1" cx="32" cy="32" r="30"/><path class="cls-2" d="M4.56,37.61a28.07,28.07,0,0,1,1-14.94,2,2,0,0,0-3.76-1.34A31.9,31.9,0,0,0,.64,38.39a2,2,0,0,0,3.92-.78Z"/><path class="cls-2" d="M11.92,7.1,9.41,4.59A2,2,0,0,0,6,6c0,8.32,0,8.06,0,8.34A2,2,0,0,0,8,16h8a2,2,0,0,0,1.41-3.41L14.77,9.94C33.12-4.37,60,8.76,60,32A28,28,0,0,1,7.24,45.07,2,2,0,1,0,3.7,46.93,32,32,0,0,0,64,32C64,5.23,32.83-9.73,11.92,7.1Z"/><path class="cls-2" d="M20.59,43.41a2,2,0,0,0,2.82,0L31,35.85a4,4,0,0,0,3-7.29V12a2,2,0,0,0-4,0V28.56A3.92,3.92,0,0,0,28.15,33l-7.56,7.57A2,2,0,0,0,20.59,43.41Z"/></g></svg>